<svg xmlns="http://www.w3.org/2000/svg" xmlns:xlink="http://www.w3.org/1999/xlink" width="1080" zoomAndPan="magnify" viewBox="0 0 810 809.999993" height="1080" preserveAspectRatio="xMidYMid meet" version="1.0"><defs><clipPath id="e1dcd440bb"><path d="M 37.828125 24.839844 L 772.078125 24.839844 L 772.078125 785.339844 L 37.828125 785.339844 Z M 37.828125 24.839844 " clip-rule="nonzero"/></clipPath></defs><g clip-path="url(#e1dcd440bb)"><path fill="#000000" d="M 766.277344 74.285156 C 708.664062 40.089844 663.054688 24.84375 618.402344 24.84375 C 618.402344 24.84375 618.40625 24.84375 618.402344 24.84375 C 573.753906 24.84375 528.140625 40.09375 470.527344 74.285156 C 466.910156 76.433594 464.6875 80.335938 464.6875 84.546875 L 464.6875 206.96875 C 464.6875 252.183594 484.089844 290.03125 520.789062 316.417969 L 611.445312 381.597656 C 613.523438 383.09375 615.964844 383.839844 618.402344 383.839844 C 620.84375 383.839844 623.285156 383.09375 625.363281 381.597656 L 716.015625 316.417969 C 752.71875 290.03125 772.117188 252.179688 772.117188 206.96875 L 772.117188 84.546875 C 772.117188 80.335938 769.898438 76.433594 766.277344 74.285156 Z M 748.269531 206.96875 C 748.269531 244.179688 732.300781 275.328125 702.097656 297.046875 L 618.402344 357.222656 L 534.707031 297.046875 C 504.503906 275.328125 488.539062 244.179688 488.539062 206.96875 L 488.539062 91.378906 C 587.167969 34.222656 649.636719 34.222656 748.269531 91.378906 Z M 509.6875 96.601562 C 505.839844 98.6875 503.441406 102.714844 503.441406 107.089844 L 503.441406 206.96875 C 503.441406 239.640625 516.886719 265.871094 543.40625 284.9375 L 611.445312 333.855469 C 613.523438 335.351562 615.964844 336.097656 618.402344 336.097656 C 620.84375 336.097656 623.285156 335.351562 625.363281 333.855469 L 693.398438 284.9375 C 719.917969 265.871094 733.363281 239.636719 733.363281 206.96875 L 733.363281 107.089844 C 733.363281 102.710938 730.96875 98.6875 727.121094 96.601562 C 645.835938 52.546875 590.96875 52.550781 509.6875 96.601562 Z M 709.515625 114.257812 L 709.515625 206.96875 C 709.515625 231.867188 699.691406 251.03125 679.476562 265.566406 L 618.402344 309.476562 L 557.328125 265.566406 C 537.117188 251.035156 527.292969 231.867188 527.292969 206.96875 L 527.292969 114.257812 C 595.414062 78.742188 641.394531 78.742188 709.515625 114.257812 Z M 573.570312 235.40625 C 578.214844 241.851562 585.394531 245.9375 593.324219 246.636719 C 594.132812 246.707031 594.9375 246.742188 595.738281 246.742188 C 602.941406 246.742188 609.851562 243.898438 615 238.75 L 688.945312 164.78125 C 699.578125 154.140625 699.578125 136.828125 688.941406 126.1875 C 683.789062 121.03125 676.9375 118.191406 669.652344 118.191406 C 662.363281 118.191406 655.511719 121.03125 650.359375 126.1875 L 598.023438 178.542969 L 584.566406 161.605469 C 580.039062 155.902344 573.558594 152.308594 566.324219 151.480469 C 559.09375 150.65625 551.972656 152.695312 546.273438 157.230469 C 534.507812 166.582031 532.546875 183.769531 541.898438 195.535156 Z M 559.847656 178.183594 C 559.921875 177.542969 560.199219 176.628906 561.113281 175.902344 C 561.847656 175.316406 562.613281 175.164062 563.214844 175.164062 C 563.359375 175.164062 563.496094 175.171875 563.617188 175.1875 C 564.257812 175.261719 565.171875 175.539062 565.894531 176.449219 L 587.664062 203.855469 C 589.777344 206.519531 592.929688 208.152344 596.324219 208.34375 C 599.707031 208.53125 603.03125 207.273438 605.433594 204.871094 L 667.222656 143.058594 C 668.054688 142.230469 669 142.054688 669.648438 142.054688 C 670.296875 142.054688 671.246094 142.230469 672.074219 143.058594 C 673.414062 144.398438 673.414062 146.578125 672.074219 147.917969 L 598.132812 221.882812 C 597.199219 222.816406 596.144531 222.9375 595.417969 222.875 C 594.816406 222.824219 593.683594 222.5625 592.878906 221.40625 C 592.738281 221.207031 592.59375 221.007812 592.4375 220.816406 L 560.566406 180.695312 C 559.839844 179.773438 559.773438 178.820312 559.847656 178.183594 Z M 772.117188 488.390625 C 772.117188 471.613281 758.476562 457.96875 741.707031 457.96875 L 645.988281 457.96875 L 645.988281 434.480469 C 645.988281 414.234375 629.523438 397.765625 609.285156 397.765625 L 504.320312 397.765625 C 488.519531 375.820312 469.234375 356.339844 446.914062 339.972656 C 420.535156 320.632812 391.304688 306.71875 360.417969 298.613281 C 407.539062 274.75 439.917969 225.828125 439.917969 169.480469 C 439.914062 89.726562 375.054688 24.839844 295.328125 24.839844 C 215.597656 24.839844 150.734375 89.726562 150.734375 169.480469 C 150.734375 225.832031 183.117188 274.75 230.238281 298.617188 C 186.570312 310.042969 146.445312 332.964844 113.535156 365.890625 C 64.785156 414.65625 37.9375 479.238281 37.9375 547.742188 L 37.9375 568.777344 C 37.9375 585.855469 51.828125 599.75 68.902344 599.75 L 296.875 599.75 C 310.078125 599.75 322.367188 595.484375 332.347656 588.167969 L 332.347656 741.902344 C 332.347656 765.855469 351.824219 785.339844 375.765625 785.339844 L 728.699219 785.339844 C 752.640625 785.339844 772.117188 765.855469 772.117188 741.902344 Z M 748.265625 488.390625 L 748.265625 582.085938 C 748.261719 599.621094 733.996094 613.886719 716.464844 613.886719 L 388.003906 613.886719 C 370.480469 613.886719 356.222656 599.636719 356.203125 582.113281 L 356.199219 488.386719 C 356.199219 484.832031 359.203125 481.828125 362.757812 481.828125 L 741.710938 481.828125 C 745.261719 481.828125 748.265625 484.832031 748.265625 488.390625 Z M 520.328125 637.75 L 584.136719 637.75 L 584.136719 663.398438 L 520.328125 663.398438 Z M 180.824219 344.191406 C 188.902344 339.625 197.277344 335.527344 205.910156 331.933594 L 280.742188 575.894531 L 213.324219 575.894531 Z M 228.394531 323.90625 C 249.605469 317.546875 272.074219 314.125 295.328125 314.125 C 308.9375 314.125 322.335938 315.3125 335.414062 317.59375 L 265.914062 446.222656 Z M 275.730469 478.226562 L 359.535156 323.128906 C 368.867188 325.804688 377.984375 329.054688 386.839844 332.839844 L 324.839844 486.582031 C 316.457031 482.175781 306.929688 479.707031 296.875 479.707031 L 276.183594 479.707031 Z M 492.03125 422.03125 C 499.246094 433.324219 505.550781 445.335938 510.832031 457.96875 L 482.328125 457.96875 L 482.328125 434.480469 C 482.328125 428.480469 486.464844 423.441406 492.03125 422.03125 Z M 609.285156 421.625 C 616.371094 421.625 622.136719 427.390625 622.136719 434.480469 L 622.136719 457.96875 L 536.476562 457.96875 C 531.761719 445.363281 526.109375 433.222656 519.574219 421.625 Z M 477.8125 402.144531 C 466.3125 408.351562 458.480469 420.515625 458.480469 434.480469 L 458.480469 457.96875 L 362.757812 457.96875 C 362.53125 457.96875 362.3125 458 362.085938 458.003906 L 408.320312 343.347656 C 434.988281 358.140625 458.644531 378.09375 477.8125 402.144531 Z M 174.585938 169.480469 C 174.585938 102.882812 228.75 48.699219 295.328125 48.699219 C 361.90625 48.699219 416.066406 102.882812 416.066406 169.480469 C 416.066406 236.082031 361.90625 290.265625 295.328125 290.265625 C 228.75 290.265625 174.585938 236.082031 174.585938 169.480469 Z M 158.730469 358.359375 L 175.75 479.707031 L 71.886719 479.707031 C 86.925781 430.382812 117.878906 387.929688 158.730469 358.359375 Z M 61.789062 568.777344 L 61.789062 547.742188 C 61.789062 532.648438 63.230469 517.875 65.976562 503.566406 L 179.097656 503.566406 L 189.242188 575.894531 L 68.902344 575.894531 C 64.980469 575.894531 61.789062 572.703125 61.789062 568.777344 Z M 305.359375 574.820312 L 283.503906 503.566406 L 296.875 503.566406 C 314.011719 503.566406 329.105469 516.136719 332.347656 532.921875 L 332.347656 546.535156 C 329.648438 560.476562 318.785156 571.480469 305.359375 574.820312 Z M 728.699219 761.480469 L 375.765625 761.480469 C 364.976562 761.480469 356.199219 752.699219 356.199219 741.90625 L 356.203125 627.722656 C 365.222656 634.03125 376.183594 637.75 388.003906 637.75 L 496.480469 637.75 L 496.480469 666.703125 C 496.480469 678.035156 505.699219 687.257812 517.03125 687.257812 L 587.4375 687.257812 C 598.769531 687.257812 607.988281 678.035156 607.988281 666.703125 L 607.988281 637.75 L 716.464844 637.75 C 728.285156 637.75 739.246094 634.03125 748.269531 627.722656 L 748.269531 741.90625 C 748.269531 752.699219 739.488281 761.480469 728.699219 761.480469 Z M 454.65625 588.40625 L 649.808594 588.40625 C 656.394531 588.40625 661.734375 583.0625 661.734375 576.476562 L 661.734375 519.238281 C 661.734375 512.652344 656.394531 507.3125 649.808594 507.3125 L 454.65625 507.3125 C 448.070312 507.3125 442.730469 512.652344 442.730469 519.238281 L 442.730469 576.476562 C 442.730469 583.0625 448.070312 588.40625 454.65625 588.40625 Z M 466.582031 531.167969 L 637.882812 531.167969 L 637.882812 564.546875 L 466.582031 564.546875 Z M 466.582031 531.167969 " fill-opacity="1" fill-rule="nonzero"/></g></svg>