<svg xmlns="http://www.w3.org/2000/svg" xmlns:xlink="http://www.w3.org/1999/xlink" width="1080" zoomAndPan="magnify" viewBox="0 0 810 809.999993" height="1080" preserveAspectRatio="xMidYMid meet" version="1.0"><defs><clipPath id="862e1e9b1e"><path d="M 18.097656 21.804688 L 792.097656 21.804688 L 792.097656 785 L 18.097656 785 Z M 18.097656 21.804688 " clip-rule="nonzero"/></clipPath></defs><rect x="-81" width="972" fill="#ffffff" y="-80.999999" height="971.999992" fill-opacity="1"/><rect x="-81" width="972" fill="#ffffff" y="-80.999999" height="971.999992" fill-opacity="1"/><g clip-path="url(#862e1e9b1e)"><path fill="#000000" d="M 158.480469 323.589844 L 372.246094 323.589844 C 388.378906 323.589844 399.695312 328.261719 408.382812 336.875 C 416.488281 345.050781 421.671875 356.367188 426.125 370.601562 L 448.832031 443.015625 C 451.53125 442.140625 454.378906 441.628906 457.300781 441.628906 L 485.261719 441.628906 C 492.78125 441.628906 499.644531 444.695312 504.609375 449.660156 C 509.574219 454.625 512.640625 461.484375 512.640625 469.003906 C 512.640625 476.523438 509.574219 483.386719 504.609375 488.277344 C 499.644531 493.242188 492.78125 496.304688 485.261719 496.304688 L 478.324219 496.304688 L 495.117188 516.671875 C 509.574219 534.339844 509.574219 555.21875 509.574219 576.460938 L 509.574219 646.394531 C 509.574219 662.601562 505.703125 673.84375 497.378906 681.507812 C 489.277344 688.878906 477.59375 691.945312 461.824219 691.945312 L 68.898438 691.945312 C 53.203125 691.945312 41.519531 688.878906 33.34375 681.433594 C 25.09375 673.84375 21.222656 662.601562 21.222656 646.394531 L 21.222656 576.460938 C 21.222656 555.21875 21.152344 534.339844 35.679688 516.671875 L 52.472656 496.304688 L 45.464844 496.304688 C 37.941406 496.304688 31.152344 493.242188 26.1875 488.277344 C 21.222656 483.386719 18.160156 476.523438 18.160156 469.003906 C 18.160156 461.484375 21.222656 454.625 26.1875 449.660156 C 31.152344 444.695312 37.941406 441.628906 45.464844 441.628906 L 73.5 441.628906 C 76.417969 441.628906 79.265625 442.140625 81.894531 443.015625 L 104.671875 370.601562 C 109.125 356.367188 114.308594 345.050781 122.414062 336.875 C 131.101562 328.261719 142.34375 323.589844 158.480469 323.589844 Z M 647.703125 586.753906 C 649.457031 582.15625 654.566406 579.890625 659.09375 581.644531 C 663.691406 583.394531 665.953125 588.503906 664.203125 593.03125 L 652.300781 624.128906 C 649.308594 631.867188 643.6875 637.851562 636.898438 641.210938 C 630.035156 644.714844 621.929688 645.445312 614.339844 642.597656 L 582.945312 630.917969 L 582.800781 630.84375 C 582.582031 630.773438 582.289062 630.699219 582.070312 630.554688 C 574.914062 627.632812 569.585938 621.941406 566.738281 615.003906 C 563.816406 608.140625 563.453125 599.964844 566.371094 592.226562 L 566.664062 591.351562 L 578.417969 560.910156 C 580.171875 556.3125 585.28125 554.050781 589.808594 555.800781 C 594.40625 557.554688 596.671875 562.664062 594.917969 567.261719 L 583.238281 597.703125 L 582.945312 598.433594 C 581.703125 601.792969 581.851562 605.296875 583.089844 608.214844 C 584.1875 610.84375 586.15625 613.035156 588.710938 614.128906 L 589.222656 614.347656 L 620.472656 626.027344 C 623.320312 627.050781 626.3125 626.757812 629.011719 625.371094 C 631.933594 623.910156 634.414062 621.28125 635.730469 617.777344 Z M 319.535156 287.964844 C 317.34375 292.34375 312.085938 294.167969 307.707031 291.980469 C 303.324219 289.863281 301.5 284.535156 303.617188 280.152344 C 306.464844 274.386719 309.75 268.910156 313.765625 263.949219 C 318 258.835938 323.039062 254.3125 329.242188 250.734375 L 352.09375 237.523438 L 345.523438 235.113281 C 338.515625 232.484375 333.1875 227.15625 330.265625 220.804688 C 327.492188 214.746094 326.90625 207.664062 329.171875 200.875 C 329.316406 200.21875 329.535156 199.632812 329.828125 199.050781 C 332.601562 192.480469 337.640625 187.445312 343.773438 184.667969 C 350.125 181.75 357.570312 181.3125 364.578125 183.941406 L 390.863281 193.722656 C 393.5625 194.742188 396.117188 196.128906 398.308594 197.882812 L 444.886719 137.949219 C 454.015625 126.195312 462.847656 117.4375 473.359375 112.617188 C 484.457031 107.507812 496.648438 107.144531 511.761719 112.765625 L 712.023438 187.445312 C 727.207031 193.066406 736.117188 201.386719 741.226562 212.484375 C 745.972656 222.996094 746.847656 235.40625 746.117188 250.222656 L 742.101562 326.070312 C 744.875 326.214844 747.652344 326.726562 750.425781 327.75 L 776.707031 337.53125 C 783.714844 340.160156 789.046875 345.414062 791.964844 351.765625 C 794.886719 358.191406 795.324219 365.636719 792.695312 372.644531 L 792.625 372.863281 C 789.996094 379.796875 784.738281 385.054688 778.460938 387.972656 C 772.109375 390.820312 764.660156 391.332031 757.578125 388.703125 L 751.082031 386.296875 L 759.695312 411.261719 C 767.144531 432.796875 759.769531 452.433594 752.324219 472.289062 L 727.867188 537.84375 C 722.242188 553.027344 714.652344 562.226562 704.285156 566.460938 C 694.0625 570.546875 682.089844 569.378906 667.269531 563.832031 L 534.03125 514.191406 C 529.503906 512.4375 527.167969 507.328125 528.847656 502.804688 C 530.527344 498.203125 535.636719 495.867188 540.234375 497.546875 L 673.476562 547.261719 C 684.0625 551.203125 691.945312 552.296875 697.640625 549.960938 C 703.117188 547.769531 707.496094 541.859375 711.292969 531.636719 L 735.75 466.15625 C 742.027344 449.292969 748.234375 432.652344 742.90625 417.027344 L 728.15625 374.324219 L 728.230469 374.324219 C 727.574219 372.425781 727.574219 370.308594 728.304688 368.335938 C 729.984375 363.738281 735.09375 361.402344 739.691406 363.15625 L 763.785156 372.132812 C 766.265625 373.007812 768.894531 372.863281 771.085938 371.839844 C 773.203125 370.890625 774.957031 369.214844 775.90625 367.023438 C 776.050781 366.660156 776.195312 366.292969 776.34375 365.929688 C 777 363.664062 776.78125 361.257812 775.832031 359.140625 C 774.808594 356.949219 772.984375 355.050781 770.5 354.175781 L 744.292969 344.394531 C 743.050781 343.882812 741.738281 343.738281 740.421875 343.808594 C 739.109375 343.882812 737.792969 344.246094 736.625 344.832031 C 735.3125 345.488281 733.777344 345.855469 732.171875 345.78125 C 727.28125 345.488281 723.558594 341.328125 723.777344 336.4375 L 728.375 249.347656 C 729.035156 237.082031 728.449219 227.230469 725.089844 219.855469 C 722.023438 213.066406 716.109375 207.882812 705.890625 204.015625 L 505.558594 129.335938 C 495.335938 125.539062 487.453125 125.613281 480.660156 128.679688 C 473.359375 132.109375 466.425781 139.191406 458.90625 148.828125 L 405.390625 217.738281 L 405.316406 217.738281 C 404.441406 218.90625 403.199219 219.855469 401.742188 220.441406 C 397.214844 222.335938 392.03125 220.148438 390.132812 215.621094 C 389.621094 214.453125 388.890625 213.285156 387.941406 212.335938 C 386.992188 211.460938 385.898438 210.730469 384.65625 210.292969 L 358.445312 200.511719 C 355.964844 199.5625 353.335938 199.78125 351.074219 200.800781 C 348.882812 201.824219 347.058594 203.648438 346.109375 206.058594 L 346.109375 206.132812 C 345.160156 208.613281 345.378906 211.242188 346.402344 213.503906 C 347.421875 215.695312 349.246094 217.59375 351.730469 218.46875 L 375.382812 227.300781 C 377.429688 227.957031 379.253906 229.34375 380.421875 231.316406 C 382.90625 235.550781 381.445312 241.027344 377.210938 243.433594 L 338.078125 266.136719 C 333.84375 268.546875 330.410156 271.6875 327.417969 275.261719 C 324.351562 278.984375 321.796875 283.292969 319.535156 287.964844 Z M 677.050781 417.757812 C 688.878906 422.136719 697.859375 430.972656 702.679688 441.628906 C 707.570312 452.289062 708.371094 464.769531 703.992188 476.597656 C 699.539062 488.421875 690.777344 497.402344 680.117188 502.21875 C 669.460938 507.109375 656.902344 507.914062 645.074219 503.535156 C 633.246094 499.082031 624.339844 490.320312 619.449219 479.664062 C 614.558594 469.003906 613.753906 456.449219 618.207031 444.621094 C 622.589844 432.796875 631.421875 423.890625 642.082031 419 C 652.742188 414.109375 665.226562 413.304688 677.050781 417.757812 Z M 686.617188 449.003906 C 683.621094 442.433594 678.148438 437.03125 670.847656 434.328125 C 663.617188 431.628906 655.953125 432.140625 649.457031 435.132812 C 642.882812 438.125 637.480469 443.601562 634.78125 450.828125 C 632.078125 458.054688 632.589844 465.71875 635.582031 472.289062 C 638.578125 478.785156 644.050781 484.1875 651.28125 486.890625 C 658.507812 489.589844 666.175781 489.152344 672.746094 486.160156 C 679.242188 483.167969 684.644531 477.691406 687.347656 470.390625 C 690.046875 463.164062 689.609375 455.5 686.617188 449.003906 Z M 507.457031 144.082031 L 694.792969 213.941406 C 703.042969 217.007812 707.714844 221.679688 710.199219 227.082031 C 712.605469 232.265625 712.753906 237.59375 712.242188 242.921875 L 704.355469 321.179688 C 703.992188 324.609375 703.261719 327.675781 702.3125 330.304688 C 700.195312 336.070312 696.765625 339.792969 692.675781 342.128906 C 688.585938 344.394531 684.132812 345.050781 679.898438 344.613281 C 677.5625 344.394531 675.300781 343.808594 673.183594 343.078125 L 439.265625 255.84375 C 437.148438 255.042969 435.03125 253.945312 433.132812 252.632812 C 429.628906 250.152344 426.710938 246.792969 425.101562 242.339844 C 423.570312 237.960938 423.421875 232.921875 425.613281 227.082031 C 426.5625 224.453125 428.023438 221.753906 429.996094 218.90625 L 475.257812 154.59375 C 478.324219 150.285156 481.976562 146.273438 487.230469 143.933594 C 492.636719 141.453125 499.132812 141.015625 507.457031 144.082031 Z M 594.917969 195.621094 L 501.25 160.726562 C 498.039062 159.484375 495.921875 159.484375 494.460938 160.070312 C 492.855469 160.871094 491.320312 162.695312 489.789062 164.8125 L 444.523438 229.125 C 443.355469 230.734375 442.625 232.121094 442.1875 233.289062 C 441.675781 234.746094 441.601562 235.769531 441.820312 236.425781 C 442.039062 237.082031 442.625 237.667969 443.355469 238.105469 C 444.011719 238.617188 444.742188 238.980469 445.398438 239.273438 L 679.386719 326.433594 C 680.117188 326.726562 680.847656 326.945312 681.652344 327.019531 C 682.527344 327.09375 683.402344 327.019531 683.914062 326.726562 C 684.570312 326.363281 685.15625 325.558594 685.738281 324.097656 C 686.179688 322.859375 686.542969 321.324219 686.6875 319.425781 L 694.574219 241.171875 C 694.867188 238.617188 694.867188 236.132812 694.136719 234.527344 C 693.480469 233.070312 691.871094 231.753906 688.585938 230.585938 Z M 374.582031 171.894531 C 376.992188 172.332031 378.523438 174.667969 378.011719 177.078125 C 377.574219 179.488281 375.238281 181.019531 372.828125 180.582031 L 367.28125 179.414062 C 363.046875 178.539062 359.46875 176.128906 357.058594 172.84375 C 354.722656 169.558594 353.480469 165.398438 353.992188 161.089844 L 357.496094 131.160156 L 301.136719 154.519531 C 298.433594 155.617188 295.660156 156.054688 292.957031 155.6875 C 290.183594 155.398438 287.554688 154.449219 285.148438 152.769531 L 209.144531 99.550781 L 218.929688 177.078125 L 219.660156 182.550781 L 219.660156 182.992188 C 220.097656 187.152344 218.929688 191.167969 216.664062 194.378906 C 214.328125 197.664062 210.753906 200.144531 206.519531 201.023438 L 136.285156 215.988281 L 197.539062 255.113281 C 199.65625 256.429688 201.335938 258.109375 202.574219 260.078125 C 203.890625 262.050781 204.691406 264.238281 205.058594 266.648438 C 205.496094 269.203125 205.203125 271.539062 204.472656 273.800781 C 203.816406 275.847656 202.792969 277.671875 201.699219 279.421875 L 181.476562 311.910156 C 180.164062 314.027344 177.460938 314.609375 175.34375 313.367188 C 173.300781 312.054688 172.640625 309.28125 173.957031 307.238281 L 194.179688 274.75 C 194.984375 273.511719 195.640625 272.269531 196.003906 271.101562 C 196.296875 270.078125 196.441406 269.058594 196.296875 267.960938 C 196.078125 266.792969 195.710938 265.773438 195.128906 264.898438 C 194.542969 263.949219 193.742188 263.21875 192.792969 262.558594 L 122.707031 217.738281 C 121.609375 217.15625 120.734375 216.132812 120.441406 214.820312 C 119.929688 212.410156 121.464844 210 123.875 209.5625 L 204.691406 192.335938 C 206.664062 191.894531 208.34375 190.726562 209.4375 189.195312 C 210.460938 187.734375 211.042969 185.910156 210.824219 183.941406 L 210.824219 183.648438 L 210.09375 178.097656 L 210.167969 178.097656 C 206.445312 149.046875 203.085938 119.773438 199.144531 90.792969 C 199 89.695312 199.289062 88.601562 199.945312 87.652344 C 201.335938 85.679688 204.035156 85.171875 206.078125 86.558594 L 290.257812 145.46875 C 291.351562 146.273438 292.59375 146.78125 293.90625 146.929688 C 295.148438 147.074219 296.464844 146.855469 297.777344 146.34375 C 299.089844 146.34375 354.503906 122.839844 360.78125 120.210938 C 361.585938 119.84375 362.390625 119.699219 363.265625 119.773438 C 365.675781 120.066406 367.425781 122.253906 367.207031 124.738281 L 362.828125 162.113281 C 362.609375 164.15625 363.121094 166.128906 364.289062 167.660156 C 365.382812 169.195312 367.0625 170.363281 369.03125 170.726562 Z M 132.851562 311.761719 C 131.539062 313.804688 128.765625 314.390625 126.71875 313.003906 C 124.675781 311.691406 124.09375 308.914062 125.40625 306.871094 L 145.628906 275.917969 L 61.011719 218.101562 C 58.238281 216.207031 56.195312 213.652344 54.953125 210.730469 L 54.882812 210.511719 C 53.714844 207.664062 53.421875 204.527344 54.003906 201.3125 C 54.589844 198.027344 56.050781 195.109375 58.238281 192.84375 C 60.355469 190.507812 63.203125 188.832031 66.417969 188.027344 L 171.035156 161.964844 L 157.53125 54.21875 L 157.457031 53.78125 L 155.777344 40.640625 C 155.414062 37.355469 155.921875 34.144531 157.3125 31.296875 C 158.699219 28.449219 160.886719 25.96875 163.734375 24.214844 C 166.65625 22.535156 169.796875 21.734375 172.933594 21.804688 C 176.148438 21.953125 179.214844 22.972656 181.988281 24.871094 L 298.289062 106.265625 L 385.605469 70.207031 C 388.378906 69.039062 391.300781 68.597656 394.074219 68.964844 C 396.921875 69.328125 399.695312 70.496094 402.03125 72.25 C 404.515625 74.074219 406.265625 76.410156 407.433594 79.039062 C 408.53125 81.667969 408.96875 84.585938 408.601562 87.578125 L 402.46875 140.066406 L 410.28125 141.671875 C 411.597656 141.964844 412.765625 142.546875 413.714844 143.351562 C 414.734375 144.226562 415.539062 145.324219 416.050781 146.636719 C 416.925781 148.972656 415.757812 151.527344 413.496094 152.402344 C 411.304688 153.207031 408.894531 152.257812 407.945312 150.214844 L 396.996094 147.949219 C 394.660156 147.660156 392.90625 145.46875 393.199219 143.058594 L 399.769531 86.558594 C 399.988281 85.097656 399.769531 83.710938 399.257812 82.542969 C 398.746094 81.300781 397.871094 80.207031 396.703125 79.332031 C 395.535156 78.453125 394.292969 77.945312 392.980469 77.796875 C 391.664062 77.578125 390.277344 77.796875 388.964844 78.382812 L 299.457031 115.390625 C 298.070312 115.976562 296.535156 115.832031 295.222656 114.953125 L 176.949219 32.097656 C 175.636719 31.222656 174.175781 30.710938 172.714844 30.640625 C 171.253906 30.640625 169.722656 31.003906 168.335938 31.878906 C 166.949219 32.683594 165.925781 33.851562 165.269531 35.09375 C 164.683594 36.40625 164.390625 37.941406 164.613281 39.546875 L 166.21875 52.683594 L 166.289062 53.125 L 180.382812 164.742188 L 180.382812 164.8125 C 180.601562 167.003906 179.214844 169.046875 177.023438 169.632812 L 68.535156 196.640625 C 67 197.007812 65.613281 197.808594 64.664062 198.832031 C 63.640625 199.925781 62.984375 201.3125 62.691406 202.847656 C 62.402344 204.378906 62.546875 205.839844 63.058594 207.152344 L 63.132812 207.300781 C 63.714844 208.6875 64.664062 209.855469 65.976562 210.730469 L 154.171875 271.027344 C 156.214844 272.34375 156.800781 275.117188 155.484375 277.160156 Z M 450.582031 716.914062 C 450.582031 711.65625 454.742188 707.421875 460 707.421875 C 465.183594 707.421875 469.417969 711.65625 469.417969 716.914062 L 469.417969 753.558594 C 469.417969 762.027344 466.207031 769.765625 460.949219 775.386719 C 455.546875 781.226562 448.027344 784.800781 439.703125 784.800781 L 406.339844 784.800781 C 398.015625 784.800781 390.496094 781.226562 385.09375 775.386719 C 379.839844 769.765625 376.625 762.027344 376.625 753.558594 L 376.625 716.914062 C 376.625 711.65625 380.859375 707.421875 386.042969 707.421875 C 391.300781 707.421875 395.535156 711.65625 395.535156 716.914062 L 395.535156 753.558594 C 395.535156 757.136719 396.777344 760.273438 398.894531 762.539062 C 400.863281 764.65625 403.492188 765.96875 406.339844 765.96875 L 439.703125 765.96875 C 442.550781 765.96875 445.179688 764.65625 447.152344 762.539062 C 449.269531 760.273438 450.582031 757.136719 450.582031 753.558594 Z M 135.261719 719.832031 C 135.261719 714.648438 139.496094 710.414062 144.753906 710.414062 C 149.9375 710.414062 154.171875 714.648438 154.171875 719.832031 L 154.171875 753.558594 C 154.171875 762.027344 150.886719 769.765625 145.628906 775.386719 C 140.226562 781.226562 132.78125 784.800781 124.457031 784.800781 L 91.019531 784.800781 C 82.769531 784.800781 75.25 781.226562 69.847656 775.386719 C 64.589844 769.765625 61.304688 762.027344 61.304688 753.558594 L 61.304688 719.832031 C 61.304688 714.648438 65.539062 710.414062 70.796875 710.414062 C 75.980469 710.414062 80.214844 714.648438 80.214844 719.832031 L 80.214844 753.558594 C 80.214844 757.136719 81.527344 760.273438 83.644531 762.539062 C 85.542969 764.65625 88.171875 765.96875 91.019531 765.96875 L 124.457031 765.96875 C 127.304688 765.96875 129.933594 764.65625 131.832031 762.539062 C 133.949219 760.273438 135.261719 757.136719 135.261719 753.558594 Z M 231.558594 341.328125 L 158.480469 341.328125 C 147.527344 341.328125 140.226562 344.175781 134.96875 349.429688 C 129.203125 355.125 125.261719 364.175781 121.609375 375.855469 L 95.472656 459.078125 C 95.035156 460.535156 94.230469 461.851562 93.0625 462.945312 C 89.488281 466.304688 83.863281 466.085938 80.507812 462.507812 C 79.628906 461.558594 78.535156 460.753906 77.292969 460.246094 C 76.199219 459.734375 74.886719 459.441406 73.496094 459.441406 L 45.464844 459.441406 C 42.90625 459.441406 40.5 460.535156 38.746094 462.214844 C 36.996094 463.96875 35.898438 466.375 35.898438 469.003906 C 35.898438 471.632812 36.996094 473.96875 38.746094 475.71875 C 40.5 477.472656 42.90625 478.566406 45.464844 478.566406 L 71.234375 478.566406 C 73.207031 478.566406 75.175781 479.222656 76.855469 480.613281 C 80.652344 483.675781 81.164062 489.296875 78.097656 493.09375 L 49.332031 527.914062 C 38.890625 540.691406 38.890625 558.429688 38.964844 576.460938 L 38.964844 646.394531 C 38.964844 657.34375 41.007812 664.425781 45.316406 668.367188 C 49.84375 672.527344 57.582031 674.207031 68.898438 674.207031 L 461.824219 674.207031 C 473.140625 674.207031 480.953125 672.457031 485.480469 668.367188 C 489.789062 664.351562 491.832031 657.34375 491.832031 646.394531 L 491.832031 576.460938 C 491.832031 558.429688 491.90625 540.691406 481.390625 527.914062 L 453.210938 493.679688 C 451.605469 492.074219 450.65625 489.882812 450.65625 487.402344 C 450.65625 482.507812 454.597656 478.566406 459.5625 478.566406 L 485.261719 478.566406 C 487.890625 478.566406 490.296875 477.472656 492.050781 475.71875 C 493.730469 473.96875 494.824219 471.632812 494.824219 469.003906 C 494.824219 466.375 493.730469 463.96875 492.050781 462.214844 C 490.296875 460.535156 487.890625 459.441406 485.261719 459.441406 L 457.300781 459.441406 C 455.910156 459.441406 454.597656 459.734375 453.429688 460.246094 C 452.335938 460.683594 451.3125 461.414062 450.4375 462.363281 C 449.414062 463.53125 448.027344 464.40625 446.421875 464.917969 C 441.75 466.375 436.785156 463.820312 435.324219 459.078125 L 409.1875 375.855469 C 405.535156 364.175781 401.519531 355.125 395.753906 349.429688 C 390.570312 344.175781 383.269531 341.328125 372.246094 341.328125 Z M 110.804688 551.566406 C 123.433594 551.566406 134.898438 556.75 143.21875 565 C 151.46875 573.320312 156.582031 584.710938 156.582031 597.410156 C 156.582031 610.039062 151.46875 621.5 143.21875 629.75 C 134.898438 638.074219 123.433594 643.183594 110.804688 643.183594 C 98.175781 643.183594 86.710938 638.074219 78.460938 629.75 C 70.140625 621.5 65.027344 610.039062 65.027344 597.410156 C 65.027344 584.710938 70.140625 573.320312 78.460938 565 C 86.710938 556.75 98.175781 551.566406 110.804688 551.566406 Z M 130.589844 577.554688 C 125.550781 572.519531 118.542969 569.378906 110.804688 569.378906 C 103.066406 569.378906 96.058594 572.519531 91.019531 577.554688 C 85.910156 582.664062 82.769531 589.671875 82.769531 597.410156 C 82.769531 605.148438 85.910156 612.15625 91.019531 617.195312 C 96.058594 622.304688 103.066406 625.445312 110.804688 625.445312 C 118.542969 625.445312 125.550781 622.304688 130.589844 617.195312 C 135.699219 612.15625 138.839844 605.148438 138.839844 597.410156 C 138.839844 589.671875 135.699219 582.664062 130.589844 577.554688 Z M 419.917969 551.566406 C 432.621094 551.566406 444.085938 556.75 452.335938 565 C 460.65625 573.320312 465.769531 584.710938 465.769531 597.410156 C 465.769531 610.039062 460.65625 621.5 452.335938 629.75 C 444.085938 638.074219 432.621094 643.183594 419.917969 643.183594 C 407.289062 643.183594 395.828125 638.074219 387.578125 629.75 C 379.253906 621.5 374.144531 610.039062 374.144531 597.410156 C 374.144531 584.710938 379.253906 573.320312 387.578125 565 C 395.828125 556.75 407.289062 551.566406 419.917969 551.566406 Z M 439.777344 577.554688 C 434.667969 572.519531 427.730469 569.378906 419.917969 569.378906 C 412.253906 569.378906 405.246094 572.519531 400.132812 577.554688 C 395.097656 582.664062 391.957031 589.671875 391.957031 597.410156 C 391.957031 605.148438 395.097656 612.15625 400.132812 617.195312 C 405.246094 622.304688 412.253906 625.445312 419.917969 625.445312 C 427.730469 625.445312 434.667969 622.304688 439.777344 617.195312 C 444.816406 612.15625 447.953125 605.148438 447.953125 597.410156 C 447.953125 589.671875 444.816406 582.664062 439.777344 577.554688 Z M 165.414062 354.46875 L 365.382812 354.46875 C 374.144531 354.46875 380.128906 357.167969 384.363281 361.402344 C 388.453125 365.492188 390.496094 370.453125 391.8125 375.5625 L 391.882812 375.929688 L 411.742188 451.628906 C 412.691406 455.0625 413.054688 458.128906 413.054688 460.828125 C 413.054688 466.960938 411.160156 471.707031 408.164062 475.28125 C 405.171875 478.859375 401.230469 481.050781 397.066406 482.144531 C 394.730469 482.726562 392.394531 483.019531 390.207031 483.019531 L 140.519531 483.019531 C 138.328125 483.019531 136.066406 482.726562 133.730469 482.144531 C 129.566406 481.050781 125.625 478.859375 122.558594 475.28125 C 119.566406 471.707031 117.667969 466.960938 117.667969 460.828125 C 117.667969 458.128906 118.105469 455.0625 118.980469 451.628906 L 138.984375 375.5625 C 140.300781 370.453125 142.269531 365.492188 146.359375 361.402344 C 150.667969 357.167969 156.582031 354.46875 165.414062 354.46875 Z M 265.363281 372.207031 L 165.414062 372.207031 C 161.910156 372.207031 159.9375 372.9375 158.84375 373.957031 C 157.601562 375.273438 156.800781 377.535156 156.070312 380.089844 L 136.136719 456.15625 C 135.699219 457.910156 135.480469 459.515625 135.480469 460.828125 C 135.480469 462.433594 135.773438 463.382812 136.210938 463.894531 C 136.648438 464.40625 137.378906 464.769531 138.183594 464.988281 C 138.914062 465.207031 139.714844 465.28125 140.519531 465.28125 L 390.207031 465.28125 C 391.082031 465.28125 391.882812 465.207031 392.542969 464.988281 C 393.417969 464.769531 394.148438 464.40625 394.585938 463.894531 C 395.023438 463.382812 395.316406 462.433594 395.316406 460.828125 C 395.316406 459.515625 395.097656 457.910156 394.660156 456.15625 C 394.660156 456.15625 376.40625 386.734375 374.800781 380.457031 L 374.65625 380.089844 C 373.996094 377.535156 373.195312 375.273438 371.878906 373.957031 C 370.859375 372.9375 368.886719 372.207031 365.382812 372.207031 Z M 265.363281 372.207031 " fill-opacity="1" fill-rule="nonzero"/></g></svg>