<svg xmlns="http://www.w3.org/2000/svg" xmlns:xlink="http://www.w3.org/1999/xlink" width="1080" zoomAndPan="magnify" viewBox="0 0 810 809.999993" height="1080" preserveAspectRatio="xMidYMid meet" version="1.0"><defs><clipPath id="0791710582"><path d="M 57 16.164062 L 752 16.164062 L 752 793.914062 L 57 793.914062 Z M 57 16.164062 " clip-rule="nonzero"/></clipPath></defs><path fill="#000000" d="M 152.359375 348.078125 L 250.011719 348.078125 C 250.851562 348.078125 251.679688 347.996094 252.5 347.832031 C 253.324219 347.671875 254.121094 347.429688 254.894531 347.109375 C 255.667969 346.789062 256.402344 346.394531 257.097656 345.929688 C 257.796875 345.464844 258.441406 344.933594 259.03125 344.34375 C 259.625 343.75 260.152344 343.105469 260.617188 342.410156 C 261.082031 341.714844 261.476562 340.976562 261.796875 340.203125 C 262.117188 339.429688 262.359375 338.632812 262.523438 337.8125 C 262.6875 336.992188 262.769531 336.160156 262.769531 335.324219 C 262.769531 334.484375 262.6875 333.65625 262.523438 332.835938 C 262.359375 332.011719 262.117188 331.214844 261.796875 330.441406 C 261.476562 329.667969 261.082031 328.933594 260.617188 328.238281 C 260.152344 327.539062 259.625 326.894531 259.03125 326.304688 C 258.441406 325.710938 257.796875 325.183594 257.097656 324.71875 C 256.402344 324.253906 255.667969 323.859375 254.894531 323.539062 C 254.121094 323.21875 253.324219 322.976562 252.5 322.8125 C 251.679688 322.648438 250.851562 322.566406 250.011719 322.566406 L 152.359375 322.566406 C 151.519531 322.566406 150.691406 322.648438 149.871094 322.8125 C 149.046875 322.976562 148.25 323.21875 147.476562 323.539062 C 146.703125 323.859375 145.96875 324.253906 145.273438 324.71875 C 144.574219 325.183594 143.929688 325.710938 143.339844 326.304688 C 142.746094 326.894531 142.21875 327.539062 141.753906 328.238281 C 141.289062 328.933594 140.894531 329.667969 140.574219 330.441406 C 140.253906 331.214844 140.011719 332.011719 139.847656 332.835938 C 139.683594 333.65625 139.601562 334.484375 139.601562 335.324219 C 139.601562 336.160156 139.683594 336.992188 139.847656 337.8125 C 140.011719 338.632812 140.253906 339.429688 140.574219 340.203125 C 140.894531 340.976562 141.289062 341.714844 141.753906 342.410156 C 142.21875 343.105469 142.746094 343.75 143.339844 344.34375 C 143.929688 344.933594 144.574219 345.464844 145.273438 345.929688 C 145.96875 346.394531 146.703125 346.789062 147.476562 347.109375 C 148.25 347.429688 149.046875 347.671875 149.871094 347.832031 C 150.691406 347.996094 151.519531 348.078125 152.359375 348.078125 Z M 152.359375 348.078125 " fill-opacity="1" fill-rule="nonzero"/><path fill="#000000" d="M 154.003906 247.542969 C 154.011719 248.386719 154.105469 249.21875 154.277344 250.039062 C 154.445312 250.863281 154.695312 251.660156 155.023438 252.4375 C 155.351562 253.210938 155.753906 253.945312 156.222656 254.640625 C 156.695312 255.335938 157.230469 255.980469 157.828125 256.574219 C 158.425781 257.164062 159.074219 257.691406 159.777344 258.15625 C 160.476562 258.621094 161.21875 259.011719 161.996094 259.332031 C 162.773438 259.652344 163.574219 259.894531 164.398438 260.054688 C 165.222656 260.21875 166.054688 260.300781 166.898438 260.300781 L 291.160156 260.300781 C 291.996094 260.300781 292.828125 260.21875 293.648438 260.054688 C 294.46875 259.890625 295.265625 259.648438 296.039062 259.328125 C 296.8125 259.007812 297.550781 258.617188 298.246094 258.148438 C 298.941406 257.683594 299.585938 257.15625 300.179688 256.5625 C 300.769531 255.972656 301.300781 255.328125 301.765625 254.632812 C 302.230469 253.933594 302.625 253.199219 302.945312 252.425781 C 303.265625 251.652344 303.507812 250.855469 303.667969 250.03125 C 303.832031 249.210938 303.914062 248.382812 303.914062 247.542969 C 303.914062 246.707031 303.832031 245.878906 303.667969 245.054688 C 303.507812 244.234375 303.265625 243.4375 302.945312 242.664062 C 302.625 241.890625 302.230469 241.152344 301.765625 240.457031 C 301.300781 239.761719 300.769531 239.117188 300.179688 238.523438 C 299.585938 237.933594 298.941406 237.402344 298.246094 236.9375 C 297.550781 236.472656 296.8125 236.082031 296.039062 235.761719 C 295.265625 235.4375 294.46875 235.199219 293.648438 235.035156 C 292.828125 234.871094 291.996094 234.789062 291.160156 234.789062 L 166.347656 234.789062 C 165.527344 234.816406 164.71875 234.921875 163.917969 235.101562 C 163.117188 235.285156 162.34375 235.542969 161.59375 235.875 C 160.84375 236.207031 160.132812 236.609375 159.457031 237.078125 C 158.785156 237.546875 158.164062 238.078125 157.59375 238.667969 C 157.023438 239.257812 156.515625 239.894531 156.066406 240.582031 C 155.621094 241.269531 155.242188 241.996094 154.933594 242.757812 C 154.628906 243.515625 154.394531 244.300781 154.238281 245.105469 C 154.082031 245.910156 154.003906 246.722656 154.003906 247.542969 Z M 154.003906 247.542969 " fill-opacity="1" fill-rule="nonzero"/><path fill="#000000" d="M 281.558594 121.363281 L 395.671875 121.363281 C 396.507812 121.363281 397.339844 121.28125 398.160156 121.117188 C 398.980469 120.953125 399.777344 120.710938 400.550781 120.390625 C 401.328125 120.070312 402.0625 119.675781 402.757812 119.210938 C 403.453125 118.746094 404.097656 118.21875 404.691406 117.625 C 405.28125 117.035156 405.8125 116.390625 406.277344 115.691406 C 406.742188 114.996094 407.136719 114.261719 407.457031 113.488281 C 407.777344 112.714844 408.019531 111.917969 408.179688 111.09375 C 408.34375 110.273438 408.425781 109.445312 408.425781 108.605469 C 408.425781 107.769531 408.34375 106.941406 408.179688 106.117188 C 408.019531 105.296875 407.777344 104.5 407.457031 103.726562 C 407.136719 102.953125 406.742188 102.214844 406.277344 101.519531 C 405.8125 100.824219 405.28125 100.179688 404.691406 99.585938 C 404.097656 98.996094 403.453125 98.464844 402.757812 98 C 402.0625 97.535156 401.328125 97.140625 400.550781 96.820312 C 399.777344 96.5 398.980469 96.257812 398.160156 96.097656 C 397.339844 95.933594 396.507812 95.851562 395.671875 95.851562 L 281.558594 95.851562 C 280.722656 95.851562 279.890625 95.933594 279.070312 96.097656 C 278.25 96.257812 277.449219 96.5 276.675781 96.820312 C 275.902344 97.140625 275.167969 97.535156 274.472656 98 C 273.777344 98.464844 273.132812 98.996094 272.539062 99.585938 C 271.945312 100.179688 271.417969 100.824219 270.953125 101.519531 C 270.488281 102.214844 270.09375 102.953125 269.773438 103.726562 C 269.453125 104.5 269.210938 105.296875 269.046875 106.117188 C 268.886719 106.941406 268.804688 107.769531 268.804688 108.605469 C 268.804688 109.445312 268.886719 110.273438 269.046875 111.09375 C 269.210938 111.917969 269.453125 112.714844 269.773438 113.488281 C 270.09375 114.261719 270.488281 114.996094 270.953125 115.691406 C 271.417969 116.390625 271.945312 117.035156 272.539062 117.625 C 273.132812 118.21875 273.777344 118.746094 274.472656 119.210938 C 275.167969 119.675781 275.902344 120.070312 276.675781 120.390625 C 277.449219 120.710938 278.25 120.953125 279.070312 121.117188 C 279.890625 121.28125 280.722656 121.363281 281.558594 121.363281 Z M 281.558594 121.363281 " fill-opacity="1" fill-rule="nonzero"/><path fill="#000000" d="M 164.429688 631.851562 C 164.429688 632.691406 164.511719 633.519531 164.671875 634.339844 C 164.835938 635.160156 165.078125 635.960938 165.398438 636.734375 C 165.71875 637.507812 166.113281 638.242188 166.578125 638.9375 C 167.042969 639.636719 167.570312 640.28125 168.164062 640.871094 C 168.757812 641.464844 169.402344 641.992188 170.097656 642.457031 C 170.792969 642.921875 171.527344 643.316406 172.300781 643.636719 C 173.074219 643.957031 173.875 644.199219 174.695312 644.363281 C 175.515625 644.527344 176.347656 644.609375 177.183594 644.609375 L 562.863281 644.609375 C 563.699219 644.609375 564.53125 644.527344 565.351562 644.363281 C 566.171875 644.199219 566.96875 643.957031 567.746094 643.636719 C 568.519531 643.316406 569.253906 642.921875 569.949219 642.457031 C 570.644531 641.992188 571.289062 641.464844 571.882812 640.871094 C 572.476562 640.28125 573.003906 639.636719 573.46875 638.9375 C 573.933594 638.242188 574.328125 637.507812 574.648438 636.734375 C 574.96875 635.960938 575.210938 635.160156 575.375 634.339844 C 575.535156 633.519531 575.617188 632.691406 575.617188 631.851562 C 575.617188 631.015625 575.535156 630.183594 575.375 629.363281 C 575.210938 628.542969 574.96875 627.746094 574.648438 626.972656 C 574.328125 626.195312 573.933594 625.460938 573.46875 624.765625 C 573.003906 624.070312 572.476562 623.425781 571.882812 622.832031 C 571.289062 622.242188 570.644531 621.710938 569.949219 621.246094 C 569.253906 620.78125 568.519531 620.386719 567.746094 620.066406 C 566.96875 619.746094 566.171875 619.503906 565.351562 619.34375 C 564.53125 619.179688 563.699219 619.097656 562.863281 619.097656 L 177.183594 619.097656 C 176.347656 619.097656 175.515625 619.179688 174.695312 619.34375 C 173.875 619.503906 173.074219 619.746094 172.300781 620.066406 C 171.527344 620.386719 170.792969 620.78125 170.097656 621.246094 C 169.402344 621.710938 168.757812 622.242188 168.164062 622.832031 C 167.570312 623.425781 167.042969 624.070312 166.578125 624.765625 C 166.113281 625.460938 165.71875 626.195312 165.398438 626.972656 C 165.078125 627.746094 164.835938 628.542969 164.671875 629.363281 C 164.511719 630.183594 164.429688 631.015625 164.429688 631.851562 Z M 164.429688 631.851562 " fill-opacity="1" fill-rule="nonzero"/><path fill="#000000" d="M 305.5625 460.273438 C 306.398438 460.269531 307.226562 460.191406 308.050781 460.027344 C 308.871094 459.863281 309.667969 459.621094 310.441406 459.300781 C 311.214844 458.980469 311.949219 458.585938 312.648438 458.121094 C 313.34375 457.65625 313.988281 457.128906 314.578125 456.535156 C 315.171875 455.941406 315.699219 455.300781 316.167969 454.601562 C 316.632812 453.90625 317.023438 453.171875 317.34375 452.398438 C 317.664062 451.625 317.90625 450.824219 318.070312 450.003906 C 318.234375 449.183594 318.316406 448.355469 318.316406 447.515625 C 318.316406 446.679688 318.234375 445.847656 318.070312 445.027344 C 317.90625 444.207031 317.664062 443.410156 317.34375 442.636719 C 317.023438 441.859375 316.632812 441.125 316.167969 440.429688 C 315.699219 439.734375 315.171875 439.089844 314.578125 438.496094 C 313.988281 437.90625 313.34375 437.375 312.648438 436.910156 C 311.949219 436.445312 311.214844 436.050781 310.441406 435.730469 C 309.667969 435.410156 308.871094 435.167969 308.050781 435.003906 C 307.226562 434.84375 306.398438 434.761719 305.5625 434.761719 L 133.707031 434.761719 C 132.867188 434.761719 132.039062 434.84375 131.21875 435.003906 C 130.394531 435.167969 129.597656 435.410156 128.824219 435.730469 C 128.050781 436.050781 127.316406 436.445312 126.617188 436.910156 C 125.921875 437.375 125.277344 437.90625 124.6875 438.496094 C 124.09375 439.089844 123.566406 439.734375 123.101562 440.429688 C 122.632812 441.125 122.242188 441.859375 121.921875 442.636719 C 121.601562 443.410156 121.359375 444.207031 121.195312 445.027344 C 121.03125 445.847656 120.949219 446.679688 120.949219 447.515625 C 120.949219 448.355469 121.03125 449.183594 121.195312 450.003906 C 121.359375 450.824219 121.601562 451.625 121.921875 452.398438 C 122.242188 453.171875 122.632812 453.90625 123.101562 454.601562 C 123.566406 455.300781 124.09375 455.941406 124.6875 456.535156 C 125.277344 457.128906 125.921875 457.65625 126.617188 458.121094 C 127.316406 458.585938 128.050781 458.980469 128.824219 459.300781 C 129.597656 459.621094 130.394531 459.863281 131.21875 460.027344 C 132.039062 460.191406 132.867188 460.269531 133.707031 460.273438 Z M 305.5625 460.273438 " fill-opacity="1" fill-rule="nonzero"/><path fill="#000000" d="M 127.808594 546.269531 C 127.808594 547.105469 127.890625 547.933594 128.054688 548.757812 C 128.214844 549.578125 128.457031 550.375 128.777344 551.148438 C 129.097656 551.921875 129.492188 552.65625 129.957031 553.355469 C 130.421875 554.050781 130.953125 554.695312 131.542969 555.285156 C 132.136719 555.878906 132.78125 556.40625 133.476562 556.875 C 134.171875 557.339844 134.910156 557.730469 135.683594 558.050781 C 136.457031 558.371094 137.253906 558.613281 138.074219 558.777344 C 138.894531 558.941406 139.726562 559.023438 140.5625 559.023438 L 364.539062 559.023438 C 365.375 559.023438 366.203125 558.941406 367.027344 558.777344 C 367.847656 558.613281 368.644531 558.371094 369.417969 558.050781 C 370.191406 557.730469 370.925781 557.339844 371.625 556.875 C 372.320312 556.40625 372.964844 555.878906 373.554688 555.285156 C 374.148438 554.695312 374.675781 554.050781 375.144531 553.355469 C 375.609375 552.65625 376 551.921875 376.320312 551.148438 C 376.640625 550.375 376.882812 549.578125 377.046875 548.757812 C 377.210938 547.933594 377.292969 547.105469 377.292969 546.269531 C 377.292969 545.429688 377.210938 544.601562 377.046875 543.777344 C 376.882812 542.957031 376.640625 542.160156 376.320312 541.386719 C 376 540.613281 375.609375 539.878906 375.144531 539.179688 C 374.675781 538.484375 374.148438 537.839844 373.554688 537.25 C 372.964844 536.65625 372.320312 536.128906 371.625 535.660156 C 370.925781 535.195312 370.191406 534.804688 369.417969 534.484375 C 368.644531 534.164062 367.847656 533.921875 367.027344 533.757812 C 366.203125 533.59375 365.375 533.511719 364.539062 533.511719 L 140.289062 533.511719 C 139.464844 533.53125 138.648438 533.628906 137.839844 533.804688 C 137.03125 533.980469 136.25 534.230469 135.492188 534.5625 C 134.734375 534.890625 134.015625 535.289062 133.332031 535.753906 C 132.652344 536.222656 132.023438 536.753906 131.445312 537.34375 C 130.867188 537.933594 130.351562 538.574219 129.898438 539.265625 C 129.445312 539.957031 129.0625 540.683594 128.753906 541.449219 C 128.441406 542.214844 128.203125 543 128.046875 543.8125 C 127.886719 544.625 127.808594 545.441406 127.808594 546.269531 Z M 127.808594 546.269531 " fill-opacity="1" fill-rule="nonzero"/><path fill="#000000" d="M 649.132812 207.222656 L 621.703125 207.222656 C 620.386719 207.285156 619.109375 207.535156 617.867188 207.96875 C 616.625 208.402344 615.46875 209 614.398438 209.765625 C 613.328125 210.535156 612.386719 211.433594 611.578125 212.472656 C 610.765625 213.507812 610.117188 214.636719 609.632812 215.863281 L 602.363281 237.257812 L 433.390625 237.257812 C 432.914062 237.257812 432.4375 237.28125 431.964844 237.335938 C 431.492188 237.386719 431.023438 237.464844 430.558594 237.570312 C 430.09375 237.675781 429.636719 237.804688 429.1875 237.960938 C 428.738281 238.117188 428.296875 238.296875 427.867188 238.503906 C 427.4375 238.707031 427.023438 238.9375 426.617188 239.1875 C 426.214844 239.441406 425.824219 239.714844 425.453125 240.007812 C 425.078125 240.304688 424.722656 240.617188 424.386719 240.953125 C 424.046875 241.289062 423.730469 241.640625 423.429688 242.011719 C 423.132812 242.382812 422.855469 242.769531 422.597656 243.171875 C 422.34375 243.574219 422.113281 243.988281 421.902344 244.414062 C 421.695312 244.84375 421.511719 245.28125 421.351562 245.730469 C 421.191406 246.179688 421.054688 246.632812 420.945312 247.097656 C 420.839844 247.5625 420.753906 248.027344 420.699219 248.5 C 420.644531 248.972656 420.613281 249.449219 420.609375 249.925781 C 420.605469 250.402344 420.628906 250.875 420.679688 251.347656 C 420.730469 251.820312 420.804688 252.292969 420.90625 252.757812 L 445.59375 364.949219 C 445.75 365.65625 445.964844 366.339844 446.238281 367.011719 C 446.507812 367.679688 446.835938 368.320312 447.214844 368.933594 C 447.597656 369.546875 448.027344 370.125 448.507812 370.667969 C 448.984375 371.207031 449.507812 371.703125 450.070312 372.15625 C 450.632812 372.609375 451.230469 373.007812 451.863281 373.359375 C 452.496094 373.710938 453.152344 374.003906 453.832031 374.242188 C 454.515625 374.480469 455.210938 374.660156 455.925781 374.78125 C 456.636719 374.902344 457.355469 374.960938 458.078125 374.960938 L 471.792969 374.960938 L 463.835938 385.246094 C 462.945312 386.355469 462.261719 387.578125 461.789062 388.917969 C 461.320312 390.261719 461.085938 391.644531 461.09375 393.066406 L 461.09375 404.175781 C 460.285156 404.640625 459.503906 405.152344 458.753906 405.703125 C 458 406.253906 457.277344 406.847656 456.589844 407.476562 C 455.902344 408.109375 455.25 408.773438 454.636719 409.476562 C 454.019531 410.179688 453.445312 410.910156 452.910156 411.675781 C 452.375 412.441406 451.882812 413.230469 451.433594 414.050781 C 450.984375 414.867188 450.578125 415.710938 450.222656 416.570312 C 449.867188 417.433594 449.554688 418.3125 449.292969 419.210938 C 449.035156 420.105469 448.820312 421.015625 448.660156 421.933594 C 448.496094 422.851562 448.386719 423.777344 448.324219 424.710938 C 448.265625 425.640625 448.253906 426.574219 448.292969 427.503906 C 448.335938 428.4375 448.425781 429.367188 448.570312 430.289062 C 448.710938 431.210938 448.902344 432.125 449.144531 433.023438 C 449.386719 433.925781 449.675781 434.8125 450.015625 435.683594 C 450.351562 436.554688 450.738281 437.402344 451.167969 438.230469 C 451.597656 439.058594 452.074219 439.859375 452.59375 440.636719 C 453.109375 441.414062 453.671875 442.15625 454.269531 442.875 C 454.871094 443.589844 455.507812 444.269531 456.183594 444.914062 C 456.855469 445.558594 457.5625 446.167969 458.304688 446.734375 C 459.046875 447.304688 459.816406 447.828125 460.613281 448.3125 C 461.410156 448.796875 462.234375 449.238281 463.078125 449.632812 C 463.925781 450.027344 464.789062 450.375 465.675781 450.671875 C 466.558594 450.972656 467.457031 451.226562 468.367188 451.425781 C 469.277344 451.628906 470.199219 451.78125 471.125 451.882812 C 472.054688 451.984375 472.984375 452.035156 473.917969 452.035156 C 474.851562 452.035156 475.78125 451.984375 476.710938 451.882812 C 477.636719 451.78125 478.558594 451.628906 479.46875 451.425781 C 480.378906 451.226562 481.277344 450.972656 482.164062 450.671875 C 483.046875 450.375 483.910156 450.027344 484.757812 449.632812 C 485.605469 449.238281 486.425781 448.796875 487.222656 448.3125 C 488.023438 447.828125 488.792969 447.304688 489.53125 446.734375 C 490.273438 446.167969 490.980469 445.558594 491.652344 444.914062 C 492.328125 444.269531 492.964844 443.589844 493.566406 442.875 C 494.164062 442.15625 494.726562 441.414062 495.242188 440.636719 C 495.761719 439.859375 496.238281 439.058594 496.667969 438.230469 C 497.097656 437.402344 497.484375 436.554688 497.824219 435.683594 C 498.160156 434.8125 498.449219 433.925781 498.691406 433.023438 C 498.933594 432.125 499.125 431.210938 499.269531 430.289062 C 499.410156 429.367188 499.5 428.4375 499.542969 427.503906 C 499.582031 426.574219 499.574219 425.640625 499.511719 424.710938 C 499.449219 423.777344 499.339844 422.851562 499.175781 421.933594 C 499.015625 421.015625 498.804688 420.105469 498.542969 419.210938 C 498.28125 418.3125 497.972656 417.433594 497.613281 416.570312 C 497.257812 415.710938 496.851562 414.867188 496.40625 414.050781 C 495.957031 413.230469 495.464844 412.441406 494.929688 411.675781 C 494.390625 410.910156 493.816406 410.179688 493.203125 409.476562 C 492.585938 408.773438 491.933594 408.109375 491.246094 407.476562 C 490.558594 406.847656 489.835938 406.253906 489.085938 405.703125 C 488.332031 405.152344 487.550781 404.640625 486.742188 404.175781 L 486.742188 397.453125 L 504.160156 374.960938 L 562.453125 374.960938 L 579.871094 397.453125 L 579.871094 404.175781 C 579.0625 404.640625 578.28125 405.152344 577.527344 405.703125 C 576.777344 406.253906 576.054688 406.847656 575.367188 407.476562 C 574.679688 408.109375 574.027344 408.773438 573.410156 409.476562 C 572.796875 410.179688 572.21875 410.910156 571.683594 411.675781 C 571.148438 412.441406 570.65625 413.230469 570.207031 414.050781 C 569.757812 414.867188 569.355469 415.710938 569 416.570312 C 568.640625 417.433594 568.332031 418.3125 568.070312 419.210938 C 567.808594 420.105469 567.597656 421.015625 567.4375 421.933594 C 567.273438 422.851562 567.164062 423.777344 567.101562 424.710938 C 567.039062 425.640625 567.03125 426.574219 567.070312 427.503906 C 567.113281 428.4375 567.203125 429.367188 567.34375 430.289062 C 567.488281 431.210938 567.679688 432.125 567.921875 433.023438 C 568.160156 433.925781 568.453125 434.8125 568.789062 435.683594 C 569.128906 436.550781 569.511719 437.402344 569.945312 438.230469 C 570.375 439.058594 570.851562 439.859375 571.367188 440.636719 C 571.886719 441.414062 572.445312 442.15625 573.046875 442.875 C 573.648438 443.589844 574.285156 444.269531 574.957031 444.914062 C 575.632812 445.558594 576.339844 446.167969 577.082031 446.734375 C 577.820312 447.304688 578.589844 447.828125 579.390625 448.3125 C 580.1875 448.796875 581.007812 449.238281 581.855469 449.632812 C 582.699219 450.027344 583.566406 450.375 584.449219 450.671875 C 585.332031 450.972656 586.230469 451.226562 587.144531 451.425781 C 588.054688 451.628906 588.972656 451.78125 589.902344 451.882812 C 590.828125 451.984375 591.761719 452.035156 592.695312 452.035156 C 593.628906 452.035156 594.558594 451.984375 595.488281 451.882812 C 596.414062 451.78125 597.335938 451.628906 598.246094 451.425781 C 599.15625 451.226562 600.054688 450.972656 600.9375 450.671875 C 601.824219 450.375 602.6875 450.027344 603.535156 449.632812 C 604.378906 449.238281 605.203125 448.796875 606 448.3125 C 606.796875 447.828125 607.566406 447.304688 608.308594 446.734375 C 609.046875 446.167969 609.753906 445.558594 610.429688 444.914062 C 611.105469 444.269531 611.742188 443.589844 612.339844 442.875 C 612.941406 442.15625 613.5 441.414062 614.019531 440.636719 C 614.539062 439.859375 615.011719 439.058594 615.445312 438.230469 C 615.875 437.402344 616.261719 436.554688 616.597656 435.683594 C 616.9375 434.8125 617.226562 433.925781 617.46875 433.023438 C 617.710938 432.125 617.902344 431.210938 618.042969 430.289062 C 618.1875 429.367188 618.277344 428.4375 618.316406 427.503906 C 618.359375 426.574219 618.347656 425.640625 618.289062 424.710938 C 618.226562 423.777344 618.113281 422.851562 617.953125 421.933594 C 617.789062 421.015625 617.578125 420.105469 617.316406 419.210938 C 617.054688 418.3125 616.746094 417.433594 616.390625 416.570312 C 616.03125 415.710938 615.628906 414.867188 615.179688 414.050781 C 614.730469 413.230469 614.238281 412.441406 613.703125 411.675781 C 613.167969 410.910156 612.59375 410.179688 611.976562 409.476562 C 611.363281 408.773438 610.710938 408.109375 610.023438 407.476562 C 609.332031 406.847656 608.613281 406.253906 607.859375 405.703125 C 607.105469 405.152344 606.328125 404.640625 605.519531 404.175781 L 605.519531 393.066406 C 605.523438 391.644531 605.292969 390.261719 604.820312 388.917969 C 604.351562 387.578125 603.667969 386.355469 602.773438 385.246094 L 594.820312 374.960938 L 610.457031 374.960938 C 611.292969 374.960938 612.121094 374.878906 612.945312 374.714844 C 613.765625 374.550781 614.5625 374.3125 615.335938 373.988281 C 616.109375 373.667969 616.847656 373.277344 617.542969 372.8125 C 618.238281 372.347656 618.882812 371.816406 619.476562 371.226562 C 620.066406 370.632812 620.597656 369.988281 621.0625 369.292969 C 621.527344 368.597656 621.917969 367.859375 622.238281 367.085938 C 622.5625 366.3125 622.800781 365.515625 622.964844 364.695312 C 623.128906 363.871094 623.210938 363.042969 623.210938 362.207031 L 623.210938 252.480469 C 623.800781 253.175781 624.460938 253.796875 625.1875 254.347656 C 625.917969 254.898438 626.695312 255.363281 627.523438 255.742188 C 628.355469 256.121094 629.214844 256.40625 630.105469 256.597656 C 631 256.785156 631.898438 256.878906 632.8125 256.871094 L 649.132812 256.871094 C 649.957031 256.871094 650.777344 256.832031 651.59375 256.75 C 652.410156 256.667969 653.222656 256.550781 654.03125 256.386719 C 654.835938 256.226562 655.632812 256.027344 656.417969 255.789062 C 657.207031 255.550781 657.980469 255.273438 658.738281 254.960938 C 659.496094 254.644531 660.238281 254.292969 660.964844 253.90625 C 661.691406 253.519531 662.394531 253.097656 663.078125 252.640625 C 663.761719 252.183594 664.421875 251.695312 665.054688 251.171875 C 665.691406 250.652344 666.300781 250.101562 666.882812 249.519531 C 667.460938 248.9375 668.015625 248.328125 668.535156 247.695312 C 669.058594 247.058594 669.546875 246.398438 670.003906 245.714844 C 670.460938 245.03125 670.882812 244.328125 671.269531 243.601562 C 671.65625 242.878906 672.007812 242.136719 672.320312 241.375 C 672.636719 240.617188 672.914062 239.84375 673.152344 239.058594 C 673.390625 238.269531 673.589844 237.472656 673.75 236.667969 C 673.910156 235.863281 674.03125 235.050781 674.113281 234.230469 C 674.191406 233.414062 674.234375 232.59375 674.234375 231.773438 C 674.234375 230.949219 674.191406 230.128906 674.113281 229.3125 C 674.03125 228.492188 673.910156 227.679688 673.75 226.875 C 673.589844 226.070312 673.390625 225.273438 673.152344 224.484375 C 672.914062 223.699219 672.636719 222.925781 672.320312 222.167969 C 672.007812 221.40625 671.65625 220.664062 671.269531 219.941406 C 670.882812 219.214844 670.460938 218.511719 670.003906 217.828125 C 669.546875 217.144531 669.058594 216.484375 668.535156 215.847656 C 668.015625 215.214844 667.460938 214.605469 666.882812 214.023438 C 666.300781 213.441406 665.691406 212.890625 665.054688 212.371094 C 664.421875 211.847656 663.761719 211.359375 663.078125 210.902344 C 662.394531 210.445312 661.691406 210.023438 660.964844 209.636719 C 660.238281 209.25 659.496094 208.898438 658.738281 208.582031 C 657.980469 208.269531 657.207031 207.992188 656.417969 207.753906 C 655.632812 207.515625 654.835938 207.316406 654.03125 207.15625 C 653.222656 206.992188 652.410156 206.875 651.59375 206.792969 C 650.777344 206.710938 649.957031 206.671875 649.132812 206.671875 Z M 598.113281 349.449219 L 468.363281 349.449219 L 449.300781 263.042969 L 598.113281 263.042969 L 598.113281 284.714844 L 497.578125 284.714844 C 496.738281 284.714844 495.910156 284.796875 495.089844 284.957031 C 494.265625 285.121094 493.46875 285.363281 492.695312 285.683594 C 491.921875 286.003906 491.1875 286.398438 490.492188 286.863281 C 489.792969 287.328125 489.148438 287.855469 488.558594 288.449219 C 487.964844 289.042969 487.4375 289.6875 486.972656 290.382812 C 486.507812 291.078125 486.113281 291.8125 485.792969 292.585938 C 485.472656 293.359375 485.230469 294.160156 485.066406 294.980469 C 484.902344 295.800781 484.820312 296.632812 484.820312 297.46875 C 484.820312 298.304688 484.902344 299.136719 485.066406 299.957031 C 485.230469 300.777344 485.472656 301.578125 485.792969 302.351562 C 486.113281 303.125 486.507812 303.859375 486.972656 304.554688 C 487.4375 305.25 487.964844 305.894531 488.558594 306.488281 C 489.148438 307.082031 489.792969 307.609375 490.492188 308.074219 C 491.1875 308.539062 491.921875 308.933594 492.695312 309.253906 C 493.46875 309.574219 494.265625 309.816406 495.089844 309.980469 C 495.910156 310.140625 496.738281 310.222656 497.578125 310.222656 L 598.113281 310.222656 Z M 598.113281 349.449219 " fill-opacity="1" fill-rule="nonzero"/><g clip-path="url(#0791710582)"><path fill="#000000" d="M 751.726562 321.058594 C 751.71875 314.433594 751.402344 307.820312 750.777344 301.226562 C 750.15625 294.628906 749.226562 288.074219 747.992188 281.566406 C 746.757812 275.054688 745.226562 268.617188 743.390625 262.25 C 741.558594 255.882812 739.433594 249.613281 737.015625 243.445312 C 734.597656 237.277344 731.898438 231.230469 728.917969 225.3125 C 725.9375 219.394531 722.691406 213.628906 719.171875 208.015625 C 715.65625 202.398438 711.882812 196.960938 707.859375 191.695312 C 703.835938 186.429688 699.578125 181.367188 695.082031 176.5 L 695.082031 80.488281 C 695.082031 79.652344 695 78.824219 694.835938 78 C 694.671875 77.179688 694.429688 76.382812 694.109375 75.609375 C 693.789062 74.835938 693.394531 74.101562 692.929688 73.402344 C 692.464844 72.707031 691.9375 72.0625 691.34375 71.46875 C 690.753906 70.878906 690.109375 70.347656 689.410156 69.882812 C 688.714844 69.417969 687.980469 69.027344 687.207031 68.707031 C 686.433594 68.386719 685.636719 68.144531 684.8125 67.980469 C 683.992188 67.816406 683.164062 67.734375 682.324219 67.734375 L 632.125 67.734375 L 632.125 28.917969 C 632.125 28.082031 632.042969 27.253906 631.882812 26.429688 C 631.71875 25.609375 631.476562 24.8125 631.15625 24.039062 C 630.835938 23.265625 630.441406 22.53125 629.976562 21.832031 C 629.511719 21.136719 628.984375 20.492188 628.390625 19.898438 C 627.796875 19.308594 627.152344 18.777344 626.457031 18.3125 C 625.761719 17.847656 625.027344 17.457031 624.253906 17.136719 C 623.476562 16.816406 622.679688 16.574219 621.859375 16.410156 C 621.039062 16.246094 620.207031 16.164062 619.371094 16.164062 L 195.152344 16.164062 C 193.839844 16.292969 192.558594 16.566406 191.3125 16.988281 L 189.664062 17.535156 C 188.164062 18.253906 186.839844 19.214844 185.6875 20.414062 L 61.289062 159.078125 C 60.371094 160.15625 59.640625 161.34375 59.09375 162.644531 L 59.09375 163.46875 C 58.515625 164.59375 58.152344 165.78125 57.996094 167.035156 L 57.996094 729.371094 C 57.996094 730.207031 58.078125 731.035156 58.242188 731.859375 C 58.40625 732.679688 58.648438 733.476562 58.96875 734.25 C 59.289062 735.023438 59.679688 735.757812 60.144531 736.457031 C 60.609375 737.152344 61.140625 737.796875 61.730469 738.390625 C 62.324219 738.980469 62.96875 739.507812 63.664062 739.976562 C 64.363281 740.441406 65.097656 740.832031 65.871094 741.152344 C 66.644531 741.472656 67.441406 741.714844 68.261719 741.878906 C 69.085938 742.042969 69.914062 742.125 70.75 742.125 L 120.949219 742.125 L 120.949219 780.941406 C 120.949219 781.777344 121.03125 782.605469 121.195312 783.429688 C 121.359375 784.25 121.601562 785.046875 121.921875 785.820312 C 122.242188 786.59375 122.632812 787.328125 123.101562 788.027344 C 123.566406 788.722656 124.09375 789.367188 124.6875 789.957031 C 125.277344 790.550781 125.921875 791.078125 126.617188 791.546875 C 127.316406 792.011719 128.050781 792.402344 128.824219 792.722656 C 129.597656 793.042969 130.394531 793.285156 131.21875 793.449219 C 132.039062 793.613281 132.867188 793.695312 133.707031 793.695312 L 682.324219 793.695312 C 683.164062 793.695312 683.992188 793.613281 684.8125 793.449219 C 685.636719 793.285156 686.433594 793.042969 687.207031 792.722656 C 687.980469 792.402344 688.714844 792.011719 689.410156 791.546875 C 690.109375 791.078125 690.753906 790.550781 691.34375 789.957031 C 691.9375 789.367188 692.464844 788.722656 692.929688 788.027344 C 693.394531 787.328125 693.789062 786.59375 694.109375 785.820312 C 694.429688 785.046875 694.671875 784.25 694.835938 783.429688 C 695 782.605469 695.082031 781.777344 695.082031 780.941406 L 695.082031 465.621094 C 699.578125 460.753906 703.839844 455.691406 707.867188 450.429688 C 711.894531 445.164062 715.667969 439.726562 719.1875 434.113281 C 722.703125 428.496094 725.957031 422.730469 728.9375 416.8125 C 731.917969 410.894531 734.617188 404.851562 737.035156 398.679688 C 739.453125 392.511719 741.578125 386.242188 743.410156 379.875 C 745.242188 373.507812 746.773438 367.066406 748.007812 360.558594 C 749.238281 354.046875 750.167969 347.492188 750.789062 340.894531 C 751.410156 334.296875 751.722656 327.6875 751.726562 321.058594 Z M 647.761719 504.574219 L 653.933594 500.871094 C 657.910156 498.261719 661.75 495.519531 665.453125 492.777344 L 669.980469 489.621094 L 669.980469 767.5 L 146.460938 767.5 L 146.460938 741.4375 L 619.371094 741.4375 C 620.207031 741.4375 621.039062 741.355469 621.859375 741.195312 C 622.679688 741.03125 623.476562 740.789062 624.253906 740.46875 C 625.027344 740.148438 625.761719 739.753906 626.457031 739.289062 C 627.152344 738.824219 627.796875 738.296875 628.390625 737.703125 C 628.984375 737.109375 629.511719 736.464844 629.976562 735.769531 C 630.441406 735.074219 630.835938 734.339844 631.15625 733.566406 C 631.476562 732.789062 631.71875 731.992188 631.882812 731.171875 C 632.042969 730.351562 632.125 729.519531 632.125 728.683594 L 632.125 513.074219 L 634.457031 511.839844 C 638.847656 509.921875 643.097656 507.179688 647.761719 504.574219 Z M 208.042969 167.035156 L 208.042969 41.675781 L 606.617188 41.675781 L 606.617188 118.480469 L 604.695312 118.480469 C 601.539062 117.382812 598.386719 116.425781 595.09375 115.601562 L 585.21875 112.171875 L 576.714844 110.390625 C 572.601562 110.390625 568.488281 109.019531 564.371094 108.605469 L 557.515625 107.644531 C 550.929688 107.644531 543.796875 106.6875 537.625 106.6875 C 534.066406 106.597656 530.503906 106.59375 526.941406 106.683594 C 523.378906 106.769531 519.824219 106.945312 516.269531 107.210938 C 512.71875 107.476562 509.171875 107.828125 505.636719 108.269531 C 502.101562 108.714844 498.582031 109.242188 495.074219 109.859375 C 491.5625 110.476562 488.074219 111.183594 484.597656 111.972656 C 481.125 112.765625 477.675781 113.644531 474.246094 114.609375 C 470.816406 115.570312 467.410156 116.621094 464.035156 117.753906 C 460.65625 118.886719 457.308594 120.105469 453.992188 121.40625 C 450.675781 122.707031 447.394531 124.089844 444.144531 125.554688 C 440.898438 127.015625 437.6875 128.5625 434.519531 130.1875 C 431.347656 131.8125 428.21875 133.511719 425.132812 135.292969 C 422.046875 137.074219 419.007812 138.929688 416.015625 140.863281 C 413.023438 142.796875 410.078125 144.800781 407.183594 146.878906 C 404.292969 148.957031 401.453125 151.109375 398.667969 153.328125 C 395.882812 155.550781 393.152344 157.839844 390.480469 160.195312 C 387.808594 162.550781 385.199219 164.972656 382.648438 167.460938 C 380.097656 169.949219 377.609375 172.496094 375.183594 175.109375 C 372.761719 177.71875 370.40625 180.390625 368.113281 183.117188 C 365.824219 185.847656 363.601562 188.632812 361.449219 191.472656 C 359.300781 194.3125 357.21875 197.203125 355.210938 200.144531 C 353.207031 203.089844 351.273438 206.082031 349.414062 209.121094 C 347.554688 212.160156 345.773438 215.242188 344.070312 218.371094 C 342.367188 221.5 340.742188 224.671875 339.195312 227.878906 C 337.648438 231.089844 336.183594 234.335938 334.800781 237.617188 C 333.417969 240.902344 332.113281 244.214844 330.894531 247.5625 C 329.675781 250.910156 328.542969 254.289062 327.492188 257.691406 C 326.441406 261.097656 325.476562 264.523438 324.597656 267.976562 C 323.71875 271.429688 322.925781 274.902344 322.21875 278.394531 C 321.511719 281.886719 320.894531 285.394531 320.363281 288.914062 C 319.832031 292.4375 319.390625 295.972656 319.035156 299.519531 C 318.679688 303.0625 318.414062 306.613281 318.238281 310.171875 C 318.058594 313.730469 317.96875 317.289062 317.96875 320.855469 C 317.96875 324.417969 318.058594 327.976562 318.238281 331.535156 C 318.414062 335.09375 318.679688 338.644531 319.035156 342.191406 C 319.390625 345.734375 319.832031 349.269531 320.363281 352.792969 C 320.894531 356.3125 321.511719 359.820312 322.21875 363.3125 C 322.925781 366.804688 323.71875 370.277344 324.597656 373.730469 C 325.476562 377.183594 326.441406 380.609375 327.492188 384.015625 C 328.542969 387.417969 329.675781 390.796875 330.894531 394.144531 C 332.113281 397.492188 333.417969 400.804688 334.800781 404.089844 C 336.183594 407.371094 337.648438 410.617188 339.195312 413.828125 C 340.742188 417.035156 342.367188 420.207031 344.070312 423.335938 C 345.773438 426.464844 347.554688 429.546875 349.414062 432.585938 C 351.273438 435.625 353.207031 438.617188 355.210938 441.5625 C 357.21875 444.503906 359.300781 447.394531 361.449219 450.234375 C 363.601562 453.074219 365.824219 455.859375 368.113281 458.589844 C 370.40625 461.316406 372.761719 463.988281 375.183594 466.597656 C 377.609375 469.210938 380.097656 471.757812 382.648438 474.246094 C 385.199219 476.734375 387.808594 479.15625 390.480469 481.511719 C 393.152344 483.867188 395.882812 486.15625 398.667969 488.378906 C 401.453125 490.597656 404.292969 492.75 407.183594 494.828125 C 410.078125 496.90625 413.023438 498.910156 416.015625 500.84375 C 419.007812 502.777344 422.046875 504.632812 425.132812 506.414062 C 428.21875 508.195312 431.347656 509.898438 434.519531 511.519531 C 437.6875 513.144531 440.898438 514.691406 444.144531 516.15625 C 447.394531 517.617188 450.675781 519 453.992188 520.300781 C 457.308594 521.601562 460.65625 522.820312 464.035156 523.953125 C 467.410156 525.085938 470.816406 526.136719 474.246094 527.101562 C 477.675781 528.0625 481.125 528.941406 484.597656 529.734375 C 488.074219 530.523438 491.5625 531.230469 495.074219 531.847656 C 498.582031 532.464844 502.101562 532.992188 505.636719 533.4375 C 509.171875 533.878906 512.71875 534.230469 516.269531 534.496094 C 519.824219 534.761719 523.378906 534.9375 526.941406 535.023438 C 530.503906 535.113281 534.066406 535.109375 537.625 535.019531 C 544.273438 534.996094 550.902344 534.632812 557.515625 533.921875 C 559.84375 533.921875 562.039062 533.921875 564.371094 533.101562 C 566.703125 532.277344 572.738281 532.003906 576.851562 531.179688 L 585.21875 529.398438 C 588.511719 529.398438 591.941406 527.75 595.230469 526.792969 L 604.695312 524.046875 L 606.617188 523.636719 L 606.617188 715.652344 L 83.507812 715.652344 L 83.507812 180.75 L 195.152344 180.75 C 195.59375 180.757812 196.03125 180.738281 196.472656 180.699219 C 196.914062 180.660156 197.347656 180.597656 197.78125 180.511719 C 198.214844 180.425781 198.644531 180.320312 199.066406 180.191406 C 199.488281 180.0625 199.902344 179.910156 200.308594 179.738281 C 200.714844 179.566406 201.109375 179.371094 201.496094 179.160156 C 201.882812 178.945312 202.257812 178.710938 202.621094 178.460938 C 202.980469 178.207031 203.328125 177.9375 203.664062 177.648438 C 203.996094 177.359375 204.316406 177.054688 204.617188 176.730469 C 204.921875 176.410156 205.207031 176.074219 205.472656 175.722656 C 205.742188 175.371094 205.988281 175.007812 206.21875 174.628906 C 206.449219 174.253906 206.65625 173.863281 206.847656 173.464844 C 207.035156 173.066406 207.203125 172.660156 207.351562 172.242188 C 207.5 171.828125 207.625 171.40625 207.726562 170.976562 C 207.828125 170.546875 207.910156 170.113281 207.96875 169.675781 C 208.027344 169.238281 208.0625 168.796875 208.074219 168.355469 C 208.085938 167.914062 208.078125 167.476562 208.042969 167.035156 Z M 632.125 129.042969 L 632.125 93.246094 L 669.570312 93.246094 L 669.570312 153.320312 C 668.0625 152.085938 666.414062 151.125 664.90625 150.027344 C 661.203125 147.285156 657.5 144.542969 653.660156 142.074219 L 647.761719 137.546875 C 643.511719 135.078125 639.257812 132.609375 634.871094 130.414062 Z M 672.3125 452.726562 C 669.570312 455.609375 666.550781 458.351562 663.535156 460.957031 L 659.007812 465.210938 C 655.992188 467.679688 652.835938 470.007812 649.683594 472.339844 L 644.746094 476.042969 C 641.179688 478.511719 637.613281 480.707031 633.910156 482.902344 L 629.65625 485.507812 C 625.40625 487.839844 621.152344 490.035156 616.765625 492.089844 L 613.609375 493.464844 C 608.097656 495.941406 602.476562 498.136719 596.742188 500.046875 L 595.367188 500.046875 C 589.796875 501.953125 584.128906 503.507812 578.363281 504.710938 L 576.441406 504.710938 C 570.957031 505.808594 565.46875 506.628906 559.84375 507.316406 L 557.101562 507.316406 C 550.792969 508.515625 544.4375 509.382812 538.039062 509.921875 C 534.953125 509.921875 531.867188 509.84375 528.785156 509.691406 C 525.703125 509.539062 522.628906 509.3125 519.558594 509.007812 C 516.488281 508.703125 513.425781 508.324219 510.375 507.871094 C 507.320312 507.417969 504.28125 506.890625 501.253906 506.285156 C 498.230469 505.683594 495.21875 505.007812 492.226562 504.257812 C 489.234375 503.503906 486.261719 502.683594 483.308594 501.785156 C 480.355469 500.890625 477.425781 499.921875 474.523438 498.878906 C 471.617188 497.839844 468.738281 496.730469 465.886719 495.546875 C 463.039062 494.367188 460.21875 493.113281 457.429688 491.796875 C 454.640625 490.476562 451.886719 489.085938 449.164062 487.632812 C 446.441406 486.175781 443.757812 484.65625 441.113281 483.070312 C 438.464844 481.480469 435.859375 479.832031 433.296875 478.117188 C 430.730469 476.402344 428.207031 474.625 425.730469 472.785156 C 423.253906 470.945312 420.820312 469.050781 418.4375 467.089844 C 416.050781 465.132812 413.714844 463.117188 411.429688 461.042969 C 409.144531 458.972656 406.910156 456.84375 404.726562 454.664062 C 402.546875 452.480469 400.421875 450.246094 398.347656 447.957031 C 396.277344 445.671875 394.261719 443.335938 392.304688 440.949219 C 390.347656 438.566406 388.449219 436.132812 386.613281 433.652344 C 384.773438 431.175781 383 428.652344 381.285156 426.085938 C 379.570312 423.519531 377.921875 420.914062 376.335938 418.269531 C 374.75 415.621094 373.226562 412.9375 371.773438 410.214844 C 370.320312 407.492188 368.933594 404.738281 367.613281 401.949219 C 366.292969 399.160156 365.046875 396.339844 363.863281 393.488281 C 362.683594 390.636719 361.574219 387.757812 360.535156 384.855469 C 359.496094 381.949219 358.527344 379.019531 357.632812 376.066406 C 356.738281 373.113281 355.914062 370.140625 355.164062 367.148438 C 354.414062 364.152344 353.738281 361.144531 353.136719 358.117188 C 352.535156 355.089844 352.007812 352.050781 351.554688 349 C 351.101562 345.945312 350.726562 342.886719 350.421875 339.8125 C 350.121094 336.742188 349.894531 333.667969 349.742188 330.585938 C 349.589844 327.503906 349.515625 324.417969 349.515625 321.332031 C 349.515625 318.246094 349.589844 315.164062 349.742188 312.082031 C 349.894531 309 350.121094 305.921875 350.421875 302.851562 C 350.726562 299.78125 351.101562 296.71875 351.554688 293.667969 C 352.007812 290.617188 352.535156 287.578125 353.136719 284.550781 C 353.738281 281.523438 354.414062 278.511719 355.164062 275.519531 C 355.914062 272.527344 356.738281 269.554688 357.632812 266.601562 C 358.527344 263.648438 359.496094 260.71875 360.535156 257.8125 C 361.574219 254.910156 362.683594 252.03125 363.863281 249.179688 C 365.046875 246.328125 366.292969 243.507812 367.613281 240.71875 C 368.933594 237.929688 370.320312 235.171875 371.773438 232.453125 C 373.226562 229.730469 374.75 227.046875 376.335938 224.398438 C 377.921875 221.753906 379.570312 219.144531 381.285156 216.582031 C 383 214.015625 384.773438 211.492188 386.613281 209.011719 C 388.449219 206.535156 390.347656 204.101562 392.304688 201.714844 C 394.261719 199.332031 396.277344 196.996094 398.347656 194.707031 C 400.421875 192.421875 402.546875 190.1875 404.726562 188.003906 C 406.910156 185.824219 409.144531 183.695312 411.429688 181.621094 C 413.714844 179.550781 416.050781 177.535156 418.4375 175.578125 C 420.820312 173.617188 423.253906 171.71875 425.730469 169.882812 C 428.207031 168.042969 430.730469 166.265625 433.296875 164.550781 C 435.859375 162.835938 438.464844 161.183594 441.113281 159.597656 C 443.757812 158.011719 446.441406 156.492188 449.164062 155.035156 C 451.886719 153.578125 454.640625 152.191406 457.429688 150.871094 C 460.21875 149.550781 463.039062 148.300781 465.886719 147.121094 C 468.738281 145.9375 471.617188 144.828125 474.523438 143.785156 C 477.425781 142.746094 480.355469 141.777344 483.308594 140.882812 C 486.261719 139.984375 489.234375 139.160156 492.226562 138.410156 C 495.21875 137.660156 498.230469 136.984375 501.253906 136.378906 C 504.28125 135.777344 507.320312 135.25 510.375 134.796875 C 513.425781 134.34375 516.488281 133.964844 519.558594 133.660156 C 522.628906 133.355469 525.703125 133.128906 528.785156 132.976562 C 531.867188 132.824219 534.953125 132.746094 538.039062 132.746094 C 544.550781 132.769531 551.042969 133.136719 557.515625 133.84375 L 559.84375 133.84375 C 565.605469 134.527344 571.230469 135.351562 576.851562 136.585938 L 578.363281 136.585938 C 584.257812 137.820312 590.15625 139.464844 595.917969 141.25 L 597.015625 141.25 C 602.773438 143.167969 608.398438 145.363281 614.023438 147.832031 L 617.175781 149.339844 C 621.566406 151.398438 625.816406 153.457031 630.070312 155.789062 L 634.183594 158.394531 C 637.886719 160.589844 641.589844 162.78125 645.15625 165.25 L 649.957031 168.816406 C 653.109375 171.285156 656.402344 173.617188 659.421875 176.222656 L 663.808594 180.203125 C 666.828125 182.945312 669.84375 185.6875 672.722656 188.703125 C 674.855469 190.871094 676.933594 193.089844 678.957031 195.355469 C 680.980469 197.621094 682.949219 199.9375 684.859375 202.300781 C 686.773438 204.664062 688.625 207.070312 690.417969 209.523438 C 692.214844 211.976562 693.949219 214.472656 695.621094 217.007812 C 697.292969 219.546875 698.902344 222.121094 700.453125 224.738281 C 702 227.351562 703.484375 230.003906 704.902344 232.691406 C 706.320312 235.378906 707.675781 238.101562 708.960938 240.851562 C 710.25 243.605469 711.46875 246.390625 712.621094 249.203125 C 713.773438 252.015625 714.855469 254.851562 715.867188 257.71875 C 716.882812 260.582031 717.824219 263.472656 718.699219 266.382812 C 719.574219 269.292969 720.375 272.222656 721.105469 275.171875 C 721.835938 278.125 722.496094 281.089844 723.082031 284.070312 C 723.667969 287.054688 724.183594 290.046875 724.625 293.054688 C 725.066406 296.0625 725.433594 299.078125 725.730469 302.101562 C 726.023438 305.128906 726.246094 308.15625 726.394531 311.191406 C 726.539062 314.226562 726.613281 317.265625 726.613281 320.304688 C 726.613281 323.34375 726.539062 326.382812 726.394531 329.417969 C 726.246094 332.453125 726.023438 335.484375 725.730469 338.507812 C 725.433594 341.53125 725.066406 344.546875 724.625 347.554688 C 724.183594 350.5625 723.667969 353.558594 723.082031 356.539062 C 722.496094 359.519531 721.835938 362.488281 721.105469 365.4375 C 720.375 368.386719 719.574219 371.316406 718.699219 374.226562 C 717.824219 377.140625 716.882812 380.027344 715.867188 382.890625 C 714.855469 385.757812 713.773438 388.597656 712.621094 391.410156 C 711.46875 394.222656 710.25 397.003906 708.960938 399.757812 C 707.675781 402.511719 706.320312 405.230469 704.902344 407.917969 C 703.484375 410.605469 702 413.257812 700.453125 415.871094 C 698.902344 418.488281 697.292969 421.0625 695.621094 423.601562 C 693.949219 426.136719 692.214844 428.632812 690.417969 431.085938 C 688.625 433.539062 686.773438 435.945312 684.859375 438.308594 C 682.949219 440.671875 680.980469 442.988281 678.957031 445.253906 C 676.933594 447.523438 674.855469 449.738281 672.722656 451.90625 Z M 99.140625 154.828125 L 182.53125 62.25 L 182.53125 154.828125 Z M 99.140625 154.828125 " fill-opacity="1" fill-rule="nonzero"/></g></svg>