<svg xmlns="http://www.w3.org/2000/svg" xmlns:xlink="http://www.w3.org/1999/xlink" width="1080" zoomAndPan="magnify" viewBox="0 0 810 809.999993" height="1080" preserveAspectRatio="xMidYMid meet" version="1.0"><defs><clipPath id="00da10f9ca"><path d="M 15.703125 15.703125 L 717 15.703125 L 717 794.203125 L 15.703125 794.203125 Z M 15.703125 15.703125 " clip-rule="nonzero"/></clipPath><clipPath id="3d02ad74ae"><path d="M 430 430 L 794.203125 430 L 794.203125 794.203125 L 430 794.203125 Z M 430 430 " clip-rule="nonzero"/></clipPath></defs><g clip-path="url(#00da10f9ca)"><path fill="#000000" d="M 41.652344 729.328125 L 41.652344 716.355469 L 417.929688 716.355469 L 417.929688 690.402344 L 119.503906 690.402344 L 119.503906 41.652344 L 690.402344 41.652344 L 690.402344 430.902344 L 716.355469 430.902344 L 716.355469 28.679688 C 716.355469 21.542969 710.515625 15.703125 703.378906 15.703125 L 106.527344 15.703125 C 99.394531 15.703125 93.554688 21.542969 93.554688 28.679688 L 93.554688 690.402344 L 28.679688 690.402344 C 21.542969 690.402344 15.703125 696.242188 15.703125 703.378906 L 15.703125 729.328125 C 15.703125 765.171875 44.734375 794.203125 80.578125 794.203125 L 469.828125 794.203125 L 469.828125 768.253906 L 80.578125 768.253906 C 59.171875 768.253906 41.652344 750.738281 41.652344 729.328125 Z M 41.652344 729.328125 " fill-opacity="1" fill-rule="nonzero"/></g><g clip-path="url(#3d02ad74ae)"><path fill="#000000" d="M 612.554688 430.902344 C 512.320312 430.902344 430.902344 512.320312 430.902344 612.554688 C 430.902344 712.785156 512.320312 794.203125 612.554688 794.203125 C 712.785156 794.203125 794.203125 712.785156 794.203125 612.554688 C 794.203125 512.320312 712.785156 430.902344 612.554688 430.902344 Z M 749.765625 539.082031 C 758.359375 554.976562 764.199219 572.65625 766.792969 591.144531 L 736.628906 572.167969 Z M 732.25 513.132812 L 710.675781 566.980469 L 684.726562 575.414062 L 625.527344 536.164062 L 625.527344 509.566406 L 673.699219 469.503906 C 696.566406 479.234375 716.515625 494.320312 732.25 513.132812 Z M 612.554688 456.855469 C 623.421875 456.855469 633.960938 457.988281 644.179688 460.097656 L 612.554688 486.535156 L 580.925781 460.097656 C 591.144531 457.988281 601.6875 456.855469 612.554688 456.855469 Z M 551.410156 469.34375 L 599.578125 509.402344 L 599.578125 536.164062 L 541.03125 575.574219 L 515.078125 567.140625 L 493.183594 512.484375 C 508.917969 493.996094 528.867188 479.074219 551.410156 469.34375 Z M 475.667969 538.433594 L 489.292969 572.492188 L 458.152344 592.117188 C 460.746094 572.980469 466.746094 554.816406 475.667969 538.433594 Z M 500.15625 720.246094 L 536 717.8125 L 544.757812 752.683594 C 528.054688 744.574219 512.972656 733.546875 500.15625 720.246094 Z M 539.082031 691.703125 L 480.859375 695.59375 C 467.394531 674.507812 459.125 649.855469 457.179688 623.421875 L 507.132812 591.957031 L 532.757812 600.226562 L 554.976562 669.804688 Z M 650.019531 763.710938 C 638.015625 766.632812 625.527344 768.253906 612.554688 768.253906 C 599.417969 768.253906 586.605469 766.632812 574.277344 763.550781 L 560.003906 706.945312 L 575.898438 685.050781 L 649.207031 685.050781 L 664.617188 706.296875 Z M 646.453125 659.101562 L 578.820312 659.101562 L 558.382812 595.363281 L 612.554688 558.707031 L 667.375 595.039062 Z M 679.539062 753.171875 L 688.621094 717.328125 L 725.4375 719.761719 C 712.300781 733.546875 696.730469 744.898438 679.539062 753.171875 Z M 685.539062 691.050781 L 670.128906 669.804688 L 693.160156 599.902344 L 718.785156 591.632812 L 767.929688 622.609375 C 766.308594 649.046875 757.875 673.699219 744.574219 694.945312 Z M 685.539062 691.050781 " fill-opacity="1" fill-rule="nonzero"/></g><path fill="#000000" d="M 439.5 288.179688 L 443.878906 288.179688 L 443.878906 288.015625 C 456.367188 287.207031 468.53125 282.664062 478.425781 275.203125 L 620.339844 168.808594 L 604.769531 148.050781 L 462.855469 254.445312 C 456.207031 259.472656 447.933594 262.230469 439.5 262.230469 L 370.40625 262.230469 C 361.972656 262.230469 353.703125 259.472656 347.054688 254.445312 L 205.140625 148.050781 L 189.570312 168.808594 L 331.484375 275.203125 C 338.296875 280.394531 346.242188 284.125 354.515625 286.234375 L 329.699219 319.320312 C 325.804688 324.507812 326.292969 331.644531 330.835938 336.347656 C 350.296875 355.8125 379.976562 360.675781 404.628906 348.351562 L 418.253906 341.539062 L 494.644531 374.300781 C 492.535156 382.734375 487.34375 390.195312 479.722656 394.898438 L 425.390625 428.796875 C 412.902344 436.582031 396.683594 436.582031 384.195312 428.796875 L 329.859375 394.898438 C 319.96875 388.734375 313.96875 377.867188 313.96875 366.191406 C 313.96875 361.648438 311.695312 357.59375 307.804688 355.164062 L 204.003906 290.289062 L 190.21875 312.34375 L 288.339844 373.652344 C 290.613281 391.492188 300.503906 407.226562 315.914062 416.957031 L 370.246094 450.851562 C 380.625 457.339844 392.628906 460.585938 404.628906 460.585938 C 416.632812 460.585938 428.632812 457.339844 439.011719 450.851562 L 493.347656 416.957031 C 508.753906 407.226562 518.808594 391.492188 520.917969 373.652344 L 619.042969 312.34375 L 605.253906 290.289062 L 507.617188 351.433594 L 422.957031 315.101562 C 419.386719 313.640625 415.496094 313.640625 412.089844 315.425781 L 392.953125 324.996094 C 381.761719 330.671875 368.785156 330.1875 358.082031 324.507812 L 385.492188 288.179688 Z M 439.5 288.179688 " fill-opacity="1" fill-rule="nonzero"/><path fill="#000000" d="M 404.953125 67.605469 C 383.546875 67.605469 366.027344 85.121094 366.027344 106.527344 L 366.027344 119.503906 L 353.054688 119.503906 C 345.917969 119.503906 340.078125 125.34375 340.078125 132.480469 L 340.078125 210.328125 C 340.078125 217.464844 345.917969 223.304688 353.054688 223.304688 L 456.855469 223.304688 C 463.992188 223.304688 469.828125 217.464844 469.828125 210.328125 L 469.828125 132.480469 C 469.828125 125.34375 463.992188 119.503906 456.855469 119.503906 L 443.878906 119.503906 L 443.878906 106.527344 C 443.878906 85.121094 426.363281 67.605469 404.953125 67.605469 Z M 391.980469 106.527344 C 391.980469 99.394531 397.816406 93.554688 404.953125 93.554688 C 412.089844 93.554688 417.929688 99.394531 417.929688 106.527344 L 417.929688 119.503906 L 391.980469 119.503906 Z M 443.878906 197.355469 L 366.027344 197.355469 L 366.027344 145.453125 L 443.878906 145.453125 Z M 443.878906 197.355469 " fill-opacity="1" fill-rule="nonzero"/><path fill="#000000" d="M 301.152344 482.804688 L 430.902344 482.804688 L 430.902344 508.753906 L 301.152344 508.753906 Z M 301.152344 482.804688 " fill-opacity="1" fill-rule="nonzero"/><path fill="#000000" d="M 158.429688 547.679688 L 404.953125 547.679688 L 404.953125 573.628906 L 158.429688 573.628906 Z M 158.429688 547.679688 " fill-opacity="1" fill-rule="nonzero"/><path fill="#000000" d="M 158.429688 612.554688 L 404.953125 612.554688 L 404.953125 638.503906 L 158.429688 638.503906 Z M 158.429688 612.554688 " fill-opacity="1" fill-rule="nonzero"/></svg>