<svg xmlns="http://www.w3.org/2000/svg" xmlns:xlink="http://www.w3.org/1999/xlink" width="1080" zoomAndPan="magnify" viewBox="0 0 810 809.999993" height="1080" preserveAspectRatio="xMidYMid meet" version="1.0"><defs><clipPath id="8a77a2c2db"><path d="M 343 427 L 522 427 L 522 749.382812 L 343 749.382812 Z M 343 427 " clip-rule="nonzero"/></clipPath><clipPath id="9ccd0a9a47"><path d="M 357 60.882812 L 495 60.882812 L 495 213 L 357 213 Z M 357 60.882812 " clip-rule="nonzero"/></clipPath><clipPath id="1541604785"><path d="M 12.84375 721 L 770 721 L 770 749.382812 L 12.84375 749.382812 Z M 12.84375 721 " clip-rule="nonzero"/></clipPath><clipPath id="f144ba24b1"><path d="M 109 611 L 302 611 L 302 749.382812 L 109 749.382812 Z M 109 611 " clip-rule="nonzero"/></clipPath><clipPath id="75267332d6"><path d="M 727 317 L 797.34375 317 L 797.34375 354 L 727 354 Z M 727 317 " clip-rule="nonzero"/></clipPath><clipPath id="47e3231ff0"><path d="M 428 171 L 660 171 L 660 749.382812 L 428 749.382812 Z M 428 171 " clip-rule="nonzero"/></clipPath></defs><g clip-path="url(#8a77a2c2db)"><path fill="#000000" d="M 432.734375 749.261719 L 370.792969 749.261719 C 355.71875 749.261719 343.363281 737.050781 343.261719 722.042969 C 343.132812 699.464844 357.421875 679.535156 378.808594 672.402344 L 394.183594 667.21875 L 495.769531 427.238281 L 521.121094 437.960938 L 414.699219 689.371094 L 387.542969 698.519531 C 377.449219 701.871094 370.722656 711.25 370.792969 721.859375 L 432.734375 721.714844 C 441.238281 721.714844 448.96875 716.316406 451.992188 708.253906 L 488.898438 621.546875 L 514.222656 632.328125 L 477.542969 718.464844 C 470.773438 736.648438 452.679688 749.234375 432.734375 749.234375 Z M 432.734375 749.261719 " fill-opacity="1" fill-rule="nonzero"/></g><g clip-path="url(#9ccd0a9a47)"><path fill="#000000" d="M 432.734375 212.339844 C 409.117188 212.339844 387.886719 199.210938 377.304688 178.066406 L 363.535156 150.546875 C 359.269531 141.984375 357.035156 132.417969 357.035156 122.871094 C 357.035156 88.707031 384.820312 60.914062 418.980469 60.914062 C 442.613281 60.914062 463.84375 74.046875 474.410156 95.191406 L 488.167969 122.726562 C 492.488281 131.386719 494.679688 140.695312 494.679688 150.402344 C 494.679688 184.566406 466.894531 212.355469 432.734375 212.355469 Z M 418.964844 88.433594 C 399.980469 88.433594 384.550781 103.871094 384.550781 122.855469 C 384.550781 128.253906 385.765625 133.4375 388.171875 138.246094 L 401.929688 165.738281 C 407.796875 177.507812 419.609375 184.808594 432.734375 184.808594 C 451.71875 184.808594 467.152344 169.375 467.152344 150.386719 C 467.152344 144.992188 465.933594 139.820312 463.53125 135.023438 L 449.773438 107.492188 C 443.902344 95.738281 432.09375 88.433594 418.964844 88.433594 Z M 418.964844 88.433594 " fill-opacity="1" fill-rule="nonzero"/></g><path fill="#000000" d="M 398.320312 322.476562 C 389.058594 322.476562 380.226562 319.367188 372.796875 313.484375 L 303.796875 258.273438 C 293.886719 250.371094 288.207031 238.628906 288.207031 226.101562 C 288.207031 203.320312 306.730469 184.792969 329.507812 184.792969 C 338.855469 184.792969 347.730469 187.957031 355.203125 193.929688 L 396.917969 227.203125 L 431.847656 188.445312 L 452.304688 206.886719 L 399.996094 264.902344 L 337.996094 215.449219 C 336.21875 214.015625 333.300781 212.328125 329.492188 212.328125 C 321.890625 212.328125 315.71875 218.5 315.71875 226.101562 C 315.71875 230.210938 317.625 234.089844 320.972656 236.769531 L 389.917969 291.933594 C 391.605469 293.28125 394.511719 294.941406 398.308594 294.941406 C 402.101562 294.941406 405.007812 293.28125 406.769531 291.890625 L 456.65625 252.089844 L 473.835938 273.59375 L 423.902344 313.441406 C 416.417969 319.367188 407.582031 322.476562 398.320312 322.476562 Z M 398.320312 322.476562 " fill-opacity="1" fill-rule="nonzero"/><g clip-path="url(#1541604785)"><path fill="#000000" d="M 12.898438 721.730469 L 769.984375 721.730469 L 769.984375 749.261719 L 12.898438 749.261719 Z M 12.898438 721.730469 " fill-opacity="1" fill-rule="nonzero"/></g><path fill="#000000" d="M 301.960938 625.355469 L 26.65625 625.355469 L 26.65625 597.820312 L 301.960938 597.820312 C 309.5625 597.820312 315.734375 591.652344 315.734375 584.046875 L 315.734375 446.367188 C 315.734375 439.507812 314.101562 432.621094 311.023438 426.464844 L 292.5 389.398438 L 317.195312 372.917969 C 324.894531 367.777344 329.492188 359.230469 329.492188 350.023438 C 329.492188 332.828125 314.273438 322.5625 299.558594 322.5625 C 291.914062 322.5625 287.332031 324.449219 278.683594 328.761719 L 264.226562 335.976562 L 200.707031 132.648438 C 197.585938 122.667969 188.480469 115.984375 178.015625 115.984375 L 26.65625 115.984375 L 26.65625 88.449219 L 178.003906 88.449219 C 200.5625 88.449219 220.234375 102.910156 226.960938 124.457031 L 281.132812 297.820312 C 286.53125 296.085938 292.398438 295.042969 299.542969 295.042969 C 331.222656 295.042969 357.007812 319.710938 357.007812 350.035156 C 357.007812 368.476562 347.828125 385.601562 332.441406 395.839844 L 327.960938 398.816406 L 335.617188 414.152344 C 340.585938 424.117188 343.21875 435.242188 343.21875 446.367188 L 343.21875 584.046875 C 343.21875 606.828125 324.695312 625.355469 301.917969 625.355469 Z M 301.960938 625.355469 " fill-opacity="1" fill-rule="nonzero"/><path fill="#000000" d="M 237.929688 350.007812 L 26.65625 350.007812 L 26.65625 322.476562 L 200.820312 322.476562 L 154.898438 171.035156 L 26.65625 171.035156 L 26.65625 143.5 L 175.339844 143.5 Z M 237.929688 350.007812 " fill-opacity="1" fill-rule="nonzero"/><path fill="#000000" d="M 296.496094 202.726562 L 321.601562 128.46875 L 347.679688 137.285156 L 322.578125 211.546875 Z M 296.496094 202.726562 " fill-opacity="1" fill-rule="nonzero"/><path fill="#000000" d="M 259.507812 312.023438 L 289.046875 224.632812 L 315.125 233.453125 L 285.585938 320.84375 Z M 259.507812 312.023438 " fill-opacity="1" fill-rule="nonzero"/><path fill="#000000" d="M 123.015625 611.582031 L 95.488281 611.582031 L 95.488281 556.515625 L 26.65625 556.515625 L 26.65625 528.980469 L 95.488281 528.980469 C 110.660156 528.980469 123.015625 541.339844 123.015625 556.515625 Z M 123.015625 611.582031 " fill-opacity="1" fill-rule="nonzero"/><path fill="#000000" d="M 26.65625 473.914062 L 81.714844 473.914062 L 81.714844 501.449219 L 26.65625 501.449219 Z M 26.65625 473.914062 " fill-opacity="1" fill-rule="nonzero"/><path fill="#000000" d="M 246.90625 528.980469 L 191.847656 528.980469 C 169.070312 528.980469 150.546875 510.453125 150.546875 487.675781 C 150.546875 464.894531 169.070312 446.367188 191.847656 446.367188 L 246.90625 446.367188 C 269.679688 446.367188 288.207031 464.894531 288.207031 487.675781 C 288.207031 510.453125 269.679688 528.980469 246.90625 528.980469 Z M 191.847656 473.914062 C 184.246094 473.914062 178.074219 480.085938 178.074219 487.6875 C 178.074219 495.292969 184.246094 501.460938 191.847656 501.460938 L 246.90625 501.460938 C 254.507812 501.460938 260.675781 495.292969 260.675781 487.6875 C 260.675781 480.085938 254.507812 473.914062 246.90625 473.914062 Z M 191.847656 473.914062 " fill-opacity="1" fill-rule="nonzero"/><path fill="#000000" d="M 164.316406 680.421875 L 191.847656 680.421875 L 191.847656 735.488281 L 164.316406 735.488281 Z M 164.316406 680.421875 " fill-opacity="1" fill-rule="nonzero"/><g clip-path="url(#f144ba24b1)"><path fill="#000000" d="M 260.660156 749.261719 L 150.546875 749.261719 C 127.769531 749.261719 109.246094 730.734375 109.246094 707.953125 L 109.246094 611.582031 L 136.773438 611.582031 L 136.773438 707.953125 C 136.773438 715.558594 142.945312 721.730469 150.546875 721.730469 L 260.660156 721.730469 C 268.261719 721.730469 274.433594 715.558594 274.433594 707.953125 L 274.433594 611.582031 L 301.960938 611.582031 L 301.960938 707.953125 C 301.960938 730.734375 283.4375 749.261719 260.660156 749.261719 Z M 260.660156 749.261719 " fill-opacity="1" fill-rule="nonzero"/></g><path fill="#000000" d="M 710.386719 524.285156 L 720.988281 498.875 L 772.976562 520.574219 L 762.375 545.984375 Z M 710.386719 524.285156 " fill-opacity="1" fill-rule="nonzero"/><g clip-path="url(#75267332d6)"><path fill="#000000" d="M 727.90625 326.222656 L 793.964844 317.769531 L 797.457031 345.097656 L 731.402344 353.546875 Z M 727.90625 326.222656 " fill-opacity="1" fill-rule="nonzero"/></g><path fill="#000000" d="M 670.753906 148.988281 L 735.867188 126.589844 L 744.816406 152.613281 L 679.703125 175.011719 Z M 670.753906 148.988281 " fill-opacity="1" fill-rule="nonzero"/><g clip-path="url(#47e3231ff0)"><path fill="#000000" d="M 582.605469 749.261719 C 574.519531 749.261719 567.390625 745.898438 562.007812 739.539062 C 547.390625 722.214844 545.628906 697.675781 557.640625 678.460938 L 559.101562 676.113281 L 499.632812 556.859375 C 496.328125 550.027344 494.679688 543.011719 494.679688 535.867188 L 494.679688 422.097656 L 428.097656 288.914062 L 452.722656 276.601562 L 522.210938 415.585938 L 522.210938 535.855469 C 522.210938 538.816406 522.925781 541.796875 524.328125 544.703125 L 590.59375 677.601562 L 580.976562 693.035156 C 575.335938 702.070312 576.152344 713.609375 583.023438 721.742188 L 625.46875 688.726562 C 629.71875 685.089844 632.324219 679.546875 632.324219 673.535156 C 632.324219 670.542969 631.566406 667.476562 630.078125 664.472656 L 563.082031 531.429688 L 576.292969 425.691406 C 576.9375 420.539062 577.265625 415.339844 577.265625 410.230469 C 577.265625 390.972656 572.730469 371.699219 564.113281 354.476562 L 493.035156 212.300781 C 488.339844 202.933594 478.144531 197.523438 467.808594 198.839844 L 464.316406 171.523438 C 486.046875 168.773438 507.777344 180.167969 517.65625 199.984375 L 588.734375 342.160156 C 599.242188 363.195312 604.796875 386.71875 604.796875 410.230469 C 604.796875 416.484375 604.394531 422.828125 603.609375 429.101562 L 591.441406 526.535156 L 654.730469 652.1875 C 658.152344 659.132812 659.855469 666.277344 659.855469 673.535156 C 659.855469 687.523438 653.65625 700.824219 642.863281 710.058594 L 600.074219 743.363281 C 595.363281 747.085938 588.964844 749.246094 582.59375 749.246094 Z M 582.605469 749.261719 " fill-opacity="1" fill-rule="nonzero"/></g></svg>