<?xml version="1.0" standalone="no"?>
<!DOCTYPE svg PUBLIC "-//W3C//DTD SVG 20010904//EN"
 "http://www.w3.org/TR/2001/REC-SVG-20010904/DTD/svg10.dtd">
<svg version="1.0" xmlns="http://www.w3.org/2000/svg"
 width="512.000000pt" height="512.000000pt" viewBox="0 0 512.000000 512.000000"
 preserveAspectRatio="xMidYMid meet">

<g transform="translate(0.000000,512.000000) scale(0.100000,-0.100000)"
fill="#000000" stroke="none">
<path d="M1106 4949 c-62 -15 -153 -68 -197 -116 -22 -24 -55 -74 -72 -111
l-32 -67 -3 -331 -3 -331 -44 -6 c-173 -24 -366 -150 -469 -305 -74 -113 -125
-274 -126 -398 0 -68 27 -204 56 -274 77 -190 245 -349 437 -411 l67 -22 -273
-183 c-151 -100 -277 -190 -281 -199 -12 -33 -6 -66 19 -90 23 -24 29 -25 160
-25 l135 0 0 -535 0 -536 25 -24 24 -25 671 0 671 0 24 25 25 24 0 431 0 431
-25 24 c-32 33 -78 33 -110 0 l-25 -24 0 -376 0 -375 -120 0 -120 0 0 216 c0
139 -4 231 -12 256 -17 59 -88 133 -145 152 -57 20 -256 22 -317 4 -55 -16
-138 -99 -154 -154 -8 -27 -12 -117 -12 -258 l0 -216 -120 0 -120 0 0 480 0
480 775 0 776 0 24 25 c25 24 31 57 19 90 -4 9 -195 142 -425 296 l-419 279
50 61 c58 73 112 178 137 269 27 100 24 283 -6 380 -39 126 -87 206 -181 301
-115 117 -246 187 -381 205 l-49 7 0 300 c0 206 4 313 12 341 16 55 99 138
154 154 32 9 400 12 1576 12 l1534 0 -35 -72 -36 -72 -3 -518 -3 -518 25 -25
c33 -33 79 -33 111 0 l25 24 0 271 0 270 295 0 296 0 25 25 26 26 -4 222 -3
222 -32 67 c-44 93 -100 151 -191 196 l-76 37 -1755 2 c-1038 0 -1772 -3
-1795 -8z m3528 -161 c55 -16 138 -99 154 -154 7 -24 12 -100 12 -178 l0 -136
-240 0 -240 0 0 136 c0 170 9 204 75 269 70 71 145 90 239 63z m-3573 -980
c95 -35 153 -72 220 -140 202 -205 209 -545 16 -755 -37 -40 -42 -42 -78 -37
-37 6 -48 1 -162 -75 -113 -74 -127 -81 -173 -81 -208 0 -412 124 -501 305
-45 90 -58 147 -58 255 0 158 50 282 156 390 80 81 180 136 294 161 70 15 213
3 286 -23z m489 -1338 l345 -230 -695 0 -695 0 345 230 c190 126 347 230 350
230 3 0 160 -104 350 -230z m-215 -895 c25 -24 25 -24 25 -240 l0 -215 -160 0
-160 0 0 215 c0 216 0 216 25 240 23 24 31 25 135 25 104 0 112 -1 135 -25z"/>
<path d="M825 3735 c-14 -13 -25 -35 -25 -48 0 -18 -8 -28 -30 -37 -68 -28
-130 -129 -130 -210 0 -123 116 -240 239 -240 42 0 81 -38 81 -80 0 -41 -39
-80 -80 -80 -41 0 -80 39 -80 80 0 41 -39 80 -80 80 -42 0 -80 -39 -80 -81 0
-80 63 -181 130 -209 22 -9 30 -19 30 -37 0 -34 42 -73 80 -73 38 0 80 39 80
73 0 18 8 28 30 37 68 28 130 129 130 210 0 123 -116 240 -239 240 -71 0 -106
85 -56 135 49 50 135 15 135 -55 0 -41 39 -80 80 -80 42 0 80 39 80 81 0 80
-63 181 -130 209 -22 9 -30 19 -30 37 0 34 -42 73 -80 73 -19 0 -40 -9 -55
-25z"/>
<path d="M1920 4627 c-49 -16 -133 -102 -148 -153 -8 -27 -12 -120 -12 -273
l0 -232 25 -24 c15 -16 36 -25 55 -25 19 0 40 9 55 25 l25 24 0 231 0 231 25
24 24 25 591 0 591 0 24 -25 25 -24 0 -671 0 -671 -25 -24 c-20 -20 -34 -25
-78 -25 l-55 0 -7 47 c-4 26 -18 69 -31 96 -26 51 -93 122 -125 132 -24 8 -24
16 1 48 11 14 33 52 48 84 l27 58 0 255 0 255 -32 67 c-44 93 -100 151 -191
196 l-76 37 -223 3 -222 4 -26 -26 -26 -26 3 -383 3 -382 27 -58 c15 -32 37
-70 48 -84 25 -32 25 -40 1 -48 -32 -10 -99 -81 -125 -132 -13 -27 -27 -70
-31 -96 l-7 -47 -55 0 c-44 0 -58 5 -78 25 l-25 24 0 311 0 311 -25 24 c-15
16 -36 25 -55 25 -19 0 -40 -9 -55 -25 l-25 -24 0 -312 c0 -215 4 -324 12
-353 16 -55 99 -138 154 -154 30 -9 198 -12 636 -12 680 0 657 -2 731 80 24
26 49 66 55 88 17 56 17 1368 0 1424 -6 22 -31 62 -55 88 -74 83 -50 80 -737
79 -408 -1 -612 -5 -636 -12z m714 -479 c55 -16 138 -99 154 -154 7 -23 12
-65 12 -94 l0 -53 -36 6 c-55 9 -154 59 -207 105 -71 62 -115 56 -161 -21 -14
-24 -37 -52 -51 -61 l-25 -16 0 150 0 150 136 0 c78 0 154 -5 178 -12z m96
-452 l65 -13 3 -54 c5 -84 -14 -137 -72 -194 -52 -52 -103 -75 -166 -75 -63 0
-114 23 -165 75 -58 57 -75 102 -75 192 l0 59 53 22 c28 12 68 37 87 55 l35
32 85 -43 c47 -24 114 -49 150 -56z m76 -522 c39 -28 63 -63 70 -101 l7 -33
-322 0 c-272 0 -321 2 -321 14 0 25 21 70 43 95 44 47 67 51 289 48 191 -2
209 -4 234 -23z"/>
<path d="M4642 3747 c-58 -18 -114 -79 -181 -196 -62 -108 -65 -111 -98 -111
-19 0 -42 -4 -52 -10 -10 -5 -44 -53 -75 -107 -31 -54 -60 -104 -65 -112 -8
-12 -20 -9 -73 19 -51 28 -74 34 -123 34 -67 0 -136 -27 -173 -67 -11 -12 -97
-155 -191 -318 -180 -310 -194 -345 -153 -382 25 -23 64 -29 91 -15 17 9 81
111 195 308 196 338 196 338 278 299 27 -13 51 -26 54 -30 2 -4 -52 -105 -121
-224 -69 -120 -125 -229 -125 -242 0 -58 83 -94 128 -55 12 9 71 105 133 212
61 107 117 201 124 209 11 11 35 1 148 -65 75 -43 134 -80 132 -83 -2 -4 -161
-280 -355 -616 -193 -335 -355 -613 -359 -617 -3 -4 -36 10 -71 31 -36 21 -97
57 -137 80 l-71 41 164 284 c100 173 164 294 164 310 0 60 -83 98 -128 59 -16
-15 -316 -526 -375 -640 -12 -23 -18 -74 -23 -204 -5 -163 -4 -176 15 -213 22
-42 17 -67 -19 -86 -22 -12 -199 -13 -218 -1 -10 6 -7 12 11 24 34 22 67 94
67 145 0 55 -19 100 -59 137 -41 40 -83 53 -161 54 -103 1 -170 -39 -205 -121
-17 -42 -20 -153 -5 -192 8 -23 6 -28 -20 -41 -38 -19 -49 -14 -84 40 -35 56
-78 90 -134 105 -55 14 -100 5 -158 -32 -26 -16 -53 -27 -60 -24 -7 3 -22 23
-34 45 -33 66 -91 81 -135 36 -30 -29 -32 -63 -5 -114 67 -132 183 -166 303
-89 l50 32 26 -34 c57 -75 106 -118 150 -130 55 -15 96 -7 176 32 l62 31 65
-27 c36 -14 90 -31 119 -37 70 -15 295 -7 335 12 16 8 44 38 63 67 32 49 36
52 75 52 45 0 70 13 247 129 l97 64 143 249 144 249 3 -683 c2 -516 0 -694
-10 -728 -16 -58 -96 -141 -154 -158 -94 -28 -169 -8 -239 63 -64 63 -75 100
-75 244 0 105 -1 113 -25 136 l-24 25 -1711 0 -1711 0 -26 -26 c-25 -25 -25
-26 -21 -167 3 -134 5 -146 35 -209 44 -93 100 -151 191 -196 l76 -37 823 -3
823 -3 25 25 c33 33 33 79 0 111 l-24 25 -792 0 c-592 0 -802 3 -833 12 -26 8
-60 31 -91 63 -57 56 -75 102 -75 189 l0 56 1599 0 1598 0 5 -91 c5 -77 11
-101 40 -160 l34 -69 -613 0 -614 0 -24 -25 c-33 -32 -33 -78 0 -111 l25 -25
822 3 823 3 67 32 c93 44 151 100 196 191 l37 76 3 862 3 863 155 268 c85 147
158 269 163 271 5 2 24 -6 42 -17 19 -12 48 -21 64 -21 88 0 112 105 34 148
-67 37 -67 28 6 155 70 121 76 147 39 188 -12 13 -6 29 47 120 91 156 103 203
77 293 -16 55 -99 138 -154 154 -49 14 -106 14 -152 -1z m133 -172 c14 -13 25
-36 25 -50 0 -14 -29 -77 -65 -139 l-66 -114 -69 40 -70 41 19 31 c10 17 40
68 66 113 26 46 54 87 63 93 30 17 72 11 97 -15z m-256 -401 c72 -42 131 -80
131 -85 0 -12 -60 -118 -70 -124 -5 -3 -70 29 -144 72 l-134 78 30 55 c31 55
48 80 53 80 2 0 62 -34 134 -76z m-946 -1671 c42 -24 77 -46 77 -48 0 -1 -28
-21 -63 -44 -105 -68 -127 -56 -127 67 0 98 -8 96 113 25z m-575 -90 c3 -18
-8 -28 -57 -53 l-61 -30 0 48 c0 27 3 52 7 56 4 4 30 6 58 4 43 -3 50 -6 53
-25z"/>
<path d="M1945 2695 c-16 -15 -25 -36 -25 -55 0 -19 9 -40 25 -55 l24 -25 631
0 631 0 24 25 c16 15 25 36 25 55 0 19 -9 40 -25 55 l-24 25 -631 0 -631 0
-24 -25z"/>
<path d="M2505 2375 c-16 -15 -25 -36 -25 -55 0 -19 9 -40 25 -55 l24 -25 311
0 311 0 24 25 c16 15 25 36 25 55 0 19 -9 40 -25 55 l-24 25 -311 0 -311 0
-24 -25z"/>
<path d="M2425 2055 c-16 -15 -25 -36 -25 -55 0 -19 9 -40 25 -55 l24 -25 391
0 391 0 24 25 c16 15 25 36 25 55 0 19 -9 40 -25 55 l-24 25 -391 0 -391 0
-24 -25z"/>
</g>
</svg>
