<?xml version="1.0" standalone="no"?>
<!DOCTYPE svg PUBLIC "-//W3C//DTD SVG 20010904//EN"
 "http://www.w3.org/TR/2001/REC-SVG-20010904/DTD/svg10.dtd">
<svg version="1.0" xmlns="http://www.w3.org/2000/svg"
 width="512.000000pt" height="512.000000pt" viewBox="0 0 512.000000 512.000000"
 preserveAspectRatio="xMidYMid meet">

<g transform="translate(0.000000,512.000000) scale(0.100000,-0.100000)"
fill="#000000" stroke="none">
<path d="M2504 5049 c-160 -21 -306 -166 -343 -337 -6 -29 -11 -100 -11 -157
l0 -105 -384 0 -384 0 -7 33 c-20 90 -94 180 -184 220 -72 33 -179 30 -253 -6
-119 -58 -184 -170 -176 -300 6 -83 31 -142 88 -202 l38 -40 -322 -727 -321
-728 -63 0 c-74 0 -102 -20 -102 -74 0 -48 37 -76 100 -76 l47 0 7 -47 c3 -27
19 -85 35 -130 93 -269 324 -476 603 -543 113 -27 283 -27 396 0 278 67 509
274 603 541 16 43 31 101 35 129 l7 50 62 0 c78 0 92 5 111 41 33 65 -8 109
-101 109 l-61 0 -326 738 -326 737 28 30 c15 17 35 45 44 63 l17 32 393 0 394
0 4 -121 c4 -154 8 -159 139 -159 l89 0 0 -1430 0 -1430 -292 0 c-326 0 -386
-6 -474 -50 -129 -63 -232 -217 -234 -347 l0 -23 1181 0 1181 0 -4 55 c-10
123 -111 262 -232 319 -81 38 -157 46 -468 46 l-288 0 0 1430 0 1430 85 0 c78
0 88 2 110 25 24 23 25 30 25 140 l0 115 385 0 384 0 16 -31 c9 -16 31 -47 50
-67 l33 -38 -322 -729 -322 -730 -67 -5 c-79 -6 -101 -23 -101 -76 0 -50 31
-74 95 -74 45 0 49 -2 55 -27 25 -116 40 -159 79 -240 104 -212 290 -370 520
-443 107 -34 319 -39 437 -11 260 62 464 229 577 473 36 77 71 191 71 231 0
14 11 17 64 17 80 0 116 23 116 76 0 54 -28 74 -104 74 l-64 0 -120 273 c-67
149 -212 479 -325 733 l-203 461 42 46 c164 181 50 475 -197 512 -143 21 -293
-78 -335 -221 l-15 -54 -374 0 -373 0 -4 148 c-3 140 -5 150 -35 214 -80 171
-246 262 -429 237z m-1056 -1643 l309 -701 -339 -3 c-187 -1 -490 -1 -673 0
l-334 3 150 340 c83 187 222 502 310 700 l159 360 54 1 54 1 310 -701z m2946
4 c168 -382 306 -698 306 -702 0 -5 -301 -8 -670 -8 -368 0 -670 2 -670 5 0 2
131 300 291 662 160 362 299 676 309 698 17 40 18 40 72 40 l55 0 307 -695z"/>
<path d="M1187 576 c-65 -18 -116 -61 -149 -126 -27 -52 -28 -58 -28 -222 l0
-168 1553 2 1552 3 3 144 c3 184 -10 236 -76 302 -85 85 21 79 -1481 78 -1048
0 -1336 -3 -1374 -13z"/>
</g>
</svg>
